<svg width="64" height="64" viewBox="0 0 65 64" fill="none" xmlns="http://www.w3.org/2000/svg">
<path d="M5.53354 32C5.53354 19.4292 5.53354 13.1438 9.43878 9.23854C13.344 5.3333 19.6294 5.3333 32.2002 5.3333C44.771 5.3333 51.0564 5.3333 54.9616 9.23854C58.8669 13.1438 58.8669 19.4292 58.8669 32C58.8669 44.5708 58.8669 50.8561 54.9616 54.7614C51.0564 58.6666 44.771 58.6666 32.2002 58.6666C19.6294 58.6666 13.344 58.6666 9.43878 54.7614C5.53354 50.8561 5.53354 44.5708 5.53354 32Z" stroke="white" stroke-width="1.6"/>
<path d="M27.2 23.6667C27.2 20.9052 29.4385 18.6667 32.2 18.6667C34.9614 18.6667 37.2 20.9052 37.2 23.6667C37.2 25.4999 36.2134 27.1026 34.7423 27.973C33.4747 28.7229 32.2 29.8606 32.2 31.3333V34.6667" stroke="white" stroke-width="1.6" stroke-linecap="round"/>
<circle cx="32.4132" cy="41.6" r="1.2" fill="white" stroke="white" stroke-width="0.8"/>
</svg>
