<svg width="64" height="64" viewBox="0 0 65 64" fill="none" xmlns="http://www.w3.org/2000/svg">
<path d="M23.3349 31.9999L29.5045 38.1951L41.8693 25.8047" stroke="white" stroke-width="1.6" stroke-linecap="round" stroke-linejoin="round"/>
<path d="M29.402 7.55186C31.1684 6.04146 34.0612 6.04146 35.8532 7.55186L39.898 11.0335C40.666 11.6991 42.0996 12.2367 43.1236 12.2367H47.4756C50.1892 12.2367 52.4164 14.4639 52.4164 17.1775V21.5295C52.4164 22.5279 52.954 23.9871 53.6196 24.7551L57.1012 28.7999C58.6116 30.5663 58.6116 33.4591 57.1012 35.2511L53.6196 39.2959C52.954 40.0639 52.4164 41.4975 52.4164 42.5215V46.8735C52.4164 49.5871 50.1892 51.8143 47.4756 51.8143H43.1236C42.1252 51.8143 40.666 52.3519 39.898 53.0175L35.8532 56.4991C34.0868 58.0095 31.194 58.0095 29.402 56.4991L25.3572 53.0175C24.5892 52.3519 23.1556 51.8143 22.1316 51.8143H17.7028C14.9892 51.8143 12.762 49.5871 12.762 46.8735V42.4959C12.762 41.4975 12.2244 40.0639 11.5844 39.2959L8.12845 35.2255C6.64365 33.4591 6.64365 30.5919 8.12845 28.8255L11.5844 24.7551C12.2244 23.9871 12.762 22.5535 12.762 21.5551V17.1519C12.762 14.4383 14.9892 12.2111 17.7028 12.2111H22.1316C23.13 12.2111 24.5892 11.6735 25.3572 11.0079L29.402 7.55186Z" stroke="white" stroke-width="1.6" stroke-linecap="round" stroke-linejoin="round"/>
</svg>
