<svg width="42" height="30" viewBox="0 0 42 30" fill="none" xmlns="http://www.w3.org/2000/svg">
<path d="M31.2835 30C33.3041 30 35.1443 29.4928 36.8041 28.4783C38.3918 27.3913 39.6546 25.942 40.5928 24.1304C41.5309 22.2464 42 20.1087 42 17.7174C42 15.8333 41.6031 13.9855 40.8093 12.1739C40.0155 10.3623 38.933 8.65942 37.5619 7.06522C36.1186 5.47102 34.4588 4.05797 32.5825 2.82609C30.7062 1.5942 28.6856 0.652174 26.5206 0L22.4072 5C25.2217 6.30435 27.5309 7.78986 29.3351 9.45652C31.1392 11.1232 32.0412 12.5725 32.0412 13.8043C32.0412 14.7464 31.6443 15.5797 30.8505 16.3043C30.0567 17.029 29.3351 17.6812 28.6856 18.2609C27.0979 19.5652 26.0515 20.6522 25.5464 21.5217C24.9691 22.3913 24.6804 23.2971 24.6804 24.2391C24.6804 25.9783 25.2938 27.3913 26.5206 28.4783C27.7474 29.4928 29.3351 30 31.2835 30ZM8.87629 30C10.8969 30 12.7371 29.4928 14.3969 28.4783C15.9845 27.3913 17.2474 25.942 18.1856 24.1304C19.1237 22.2464 19.5928 20.1087 19.5928 17.7174C19.5928 15.8333 19.1959 13.9855 18.4021 12.1739C17.6082 10.3623 16.5258 8.65942 15.1546 7.06522C13.7113 5.47102 12.0515 4.05797 10.1753 2.82609C8.29897 1.5942 6.27835 0.652174 4.1134 0L0 5C2.81443 6.30435 5.12371 7.78986 6.92784 9.45652C8.73196 11.1232 9.63402 12.5725 9.63402 13.8043C9.63402 14.7464 9.23711 15.5797 8.4433 16.3043C7.64949 17.029 6.92784 17.6812 6.27835 18.2609C4.69072 19.5652 3.64433 20.6522 3.13918 21.5217C2.56186 22.3913 2.2732 23.2971 2.2732 24.2391C2.2732 25.9783 2.8866 27.3913 4.1134 28.4783C5.34021 29.4928 6.92784 30 8.87629 30Z" fill="#0092F3"/>
<path d="M31.2835 30C33.3041 30 35.1443 29.4928 36.8041 28.4783C38.3918 27.3913 39.6546 25.942 40.5928 24.1304C41.5309 22.2464 42 20.1087 42 17.7174C42 15.8333 41.6031 13.9855 40.8093 12.1739C40.0155 10.3623 38.933 8.65942 37.5619 7.06522C36.1186 5.47102 34.4588 4.05797 32.5825 2.82609C30.7062 1.5942 28.6856 0.652174 26.5206 0L22.4072 5C25.2217 6.30435 27.5309 7.78986 29.3351 9.45652C31.1392 11.1232 32.0412 12.5725 32.0412 13.8043C32.0412 14.7464 31.6443 15.5797 30.8505 16.3043C30.0567 17.029 29.3351 17.6812 28.6856 18.2609C27.0979 19.5652 26.0515 20.6522 25.5464 21.5217C24.9691 22.3913 24.6804 23.2971 24.6804 24.2391C24.6804 25.9783 25.2938 27.3913 26.5206 28.4783C27.7474 29.4928 29.3351 30 31.2835 30ZM8.87629 30C10.8969 30 12.7371 29.4928 14.3969 28.4783C15.9845 27.3913 17.2474 25.942 18.1856 24.1304C19.1237 22.2464 19.5928 20.1087 19.5928 17.7174C19.5928 15.8333 19.1959 13.9855 18.4021 12.1739C17.6082 10.3623 16.5258 8.65942 15.1546 7.06522C13.7113 5.47102 12.0515 4.05797 10.1753 2.82609C8.29897 1.5942 6.27835 0.652174 4.1134 0L0 5C2.81443 6.30435 5.12371 7.78986 6.92784 9.45652C8.73196 11.1232 9.63402 12.5725 9.63402 13.8043C9.63402 14.7464 9.23711 15.5797 8.4433 16.3043C7.64949 17.029 6.92784 17.6812 6.27835 18.2609C4.69072 19.5652 3.64433 20.6522 3.13918 21.5217C2.56186 22.3913 2.2732 23.2971 2.2732 24.2391C2.2732 25.9783 2.8866 27.3913 4.1134 28.4783C5.34021 29.4928 6.92784 30 8.87629 30Z" fill="url(#paint0_linear_711_4971)"/>
<defs>
<linearGradient id="paint0_linear_711_4971" x1="-9.55544e-08" y1="0.9375" x2="24.3636" y2="44.605" gradientUnits="userSpaceOnUse">
<stop stop-color="#29C3FF"/>
<stop offset="1" stop-color="#2764E7"/>
</linearGradient>
</defs>
</svg>
