<svg width="64" height="64" viewBox="0 0 64 64" fill="none" xmlns="http://www.w3.org/2000/svg">
<path d="M10.668 15.9987V50.6654C10.668 55.0836 14.2497 58.6654 18.668 58.6654H45.3346C49.7529 58.6654 53.3346 55.0836 53.3346 50.6654V23.9987C53.3346 19.5804 49.7529 15.9987 45.3346 15.9987H10.668ZM10.668 15.9987V13.332" stroke="#0D6EFD" stroke-width="1.5"/>
<path d="M48.0013 16.0001V16.7501H48.7513V16.0001H48.0013ZM41.9137 6.20304L41.8077 5.46058L41.9137 6.20304ZM13.1202 10.3164L13.0142 9.57394L13.1202 10.3164ZM13.5241 16.7501H48.0013V15.2501H13.5241V16.7501ZM48.7513 16.0001V11.4828H47.2513V16.0001H48.7513ZM41.8077 5.46058L13.0142 9.57394L13.2263 11.0589L42.0198 6.9455L41.8077 5.46058ZM13.0142 9.57394C11.2376 9.82773 9.91797 11.3493 9.91797 13.1439H11.418C11.418 12.0957 12.1887 11.2071 13.2263 11.0589L13.0142 9.57394ZM48.7513 11.4828C48.7513 7.78076 45.4725 4.93704 41.8077 5.46058L42.0198 6.9455C44.7809 6.55105 47.2513 8.69359 47.2513 11.4828H48.7513ZM13.5241 15.2501C12.3609 15.2501 11.418 14.3071 11.418 13.1439H9.91797C9.91797 15.1355 11.5325 16.7501 13.5241 16.7501V15.2501Z" fill="#0D6EFD"/>
<path d="M21.332 32H42.6654" stroke="#0D6EFD" stroke-width="1.5" stroke-linecap="round"/>
<path d="M21.332 41.332H35.9987" stroke="#0D6EFD" stroke-width="1.5" stroke-linecap="round"/>
</svg>
