<svg width="64" height="64" viewBox="0 0 64 64" fill="none" xmlns="http://www.w3.org/2000/svg">
<path d="M23.0003 36C25.3133 36 27.5498 34.9568 29.3003 33.0636C31.0024 31.217 32.0419 28.7545 32.2253 26.1318C32.421 23.3341 31.5761 20.7614 29.847 18.8864C28.1179 17.0114 25.7003 16 23.0003 16C20.3195 16 17.8951 17.0295 16.1716 18.9C14.4312 20.7886 13.5841 23.3568 13.7799 26.1307C13.9677 28.7568 15.0061 31.2182 16.7048 33.0625C18.4508 34.9568 20.6862 36 23.0003 36ZM8.16952 56H37.83C38.3069 56.0025 38.778 55.8946 39.207 55.6844C39.6361 55.4742 40.0117 55.1673 40.305 54.7875C40.616 54.3757 40.8308 53.8981 40.9333 53.3906C41.0358 52.8831 41.0233 52.3587 40.8967 51.8568C39.9495 48.0147 37.6027 44.8284 34.1108 42.6432C31.0114 40.7045 27.066 39.6363 23.0003 39.6363C18.8547 39.6363 15.0129 40.6591 11.8955 42.5966C8.39564 44.7704 6.04553 47.975 5.10278 51.8636C4.97775 52.3659 4.96664 52.8903 5.07027 53.3975C5.1739 53.9048 5.3896 54.3819 5.70128 54.7931C5.99423 55.1712 6.36897 55.4766 6.79681 55.6858C7.22464 55.8949 7.69421 56.0024 8.16952 56ZM44.2627 36.4545C48.2216 36.4545 51.7023 32.7363 52.0252 28.167C52.1849 25.8261 51.4627 23.6614 50.0002 22.0739C48.5534 20.5023 46.5127 19.6364 44.2627 19.6364C42.0127 19.6364 39.9877 20.5068 38.5331 22.0875C37.0594 23.6875 36.3394 25.8477 36.5081 28.1693C36.831 32.7375 40.3106 36.4545 44.2627 36.4545ZM36.876 40.0284C38.8549 39.0511 41.4232 38.5625 44.2616 38.5625C47.5758 38.5625 50.7944 39.4352 53.3257 41.0193C56.1955 42.8182 58.126 45.4375 58.9056 48.6C59.0197 49.0548 59.0305 49.5299 58.9372 49.9896C58.8439 50.4493 58.6489 50.8817 58.3668 51.2545C58.0991 51.6016 57.7561 51.8821 57.3643 52.0744C56.9725 52.2667 56.5422 52.3656 56.1066 52.3636H43.6192C43.4084 52.3636 43.2044 52.2888 43.0426 52.1524C42.8808 52.0159 42.7715 51.8265 42.7338 51.617C42.7215 51.5454 42.7057 51.4738 42.6877 51.4034C41.7337 47.5329 39.4984 44.2625 36.1954 41.8784C36.0739 41.7899 35.9762 41.6722 35.9111 41.536C35.846 41.3998 35.8156 41.2493 35.8226 41.0982C35.8297 40.9471 35.8739 40.8001 35.9514 40.6707C36.0289 40.5412 36.1371 40.4333 36.2662 40.3568C36.4429 40.2522 36.6454 40.142 36.876 40.0284Z" fill="url(#paint0_linear_711_4955)"/>
<defs>
<linearGradient id="paint0_linear_711_4955" x1="59" y1="17.25" x2="25.9048" y2="74.4489" gradientUnits="userSpaceOnUse">
<stop stop-color="#29C3FF"/>
<stop offset="1" stop-color="#2764E7"/>
</linearGradient>
</defs>
</svg>
