<svg width="64" height="64" viewBox="0 0 64 64" fill="none" xmlns="http://www.w3.org/2000/svg">
<path d="M12.3376 58.6654C11.4176 58.6654 10.6709 57.9187 10.6709 56.9987V10.9987C10.6709 9.4958 11.2679 8.05447 12.3306 6.99176C13.3933 5.92905 14.8347 5.33203 16.3376 5.33203H37.0042C38.5071 5.33203 39.9485 5.92905 41.0112 6.99176C42.0739 8.05447 42.6709 9.4958 42.6709 10.9987V25.332H47.6709C49.1738 25.332 50.6151 25.9291 51.6778 26.9918C52.7405 28.0545 53.3376 29.4958 53.3376 30.9987V56.9987C53.3376 57.9187 52.5909 58.6654 51.6709 58.6654H12.3376Z" fill="url(#paint0_linear_711_4943)"/>
<path d="M46.3372 49.6641V58.6641H33.0039L33.0042 46.6641H43.3372C44.1329 46.6641 44.896 46.9801 45.4586 47.5427C46.0212 48.1053 46.3372 48.8684 46.3372 49.6641Z" fill="url(#paint1_linear_711_4943)"/>
<path d="M46.3372 49.6641V58.6641H33.0039L33.0042 46.6641H43.3372C44.1329 46.6641 44.896 46.9801 45.4586 47.5427C46.0212 48.1053 46.3372 48.8684 46.3372 49.6641Z" fill="url(#paint2_linear_711_4943)"/>
<path d="M17.6709 49.6641V58.6641H31.0042V46.6641H20.6709C19.8752 46.6641 19.1122 46.9801 18.5496 47.5427C17.987 48.1053 17.6709 48.8684 17.6709 49.6641Z" fill="url(#paint3_linear_711_4943)"/>
<path d="M24.0042 18.6667C24.0042 19.3739 23.7233 20.0522 23.2232 20.5523C22.7231 21.0524 22.0448 21.3333 21.3376 21.3333C20.6303 21.3333 19.952 21.0524 19.4519 20.5523C18.9519 20.0522 18.6709 19.3739 18.6709 18.6667C18.6709 17.9594 18.9519 17.2811 19.4519 16.781C19.952 16.281 20.6303 16 21.3376 16C22.0448 16 22.7231 16.281 23.2232 16.781C23.7233 17.2811 24.0042 17.9594 24.0042 18.6667ZM21.3376 30.6667C22.0448 30.6667 22.7231 30.3857 23.2232 29.8856C23.7233 29.3855 24.0042 28.7072 24.0042 28C24.0042 27.2928 23.7233 26.6145 23.2232 26.1144C22.7231 25.6143 22.0448 25.3333 21.3376 25.3333C20.6303 25.3333 19.952 25.6143 19.4519 26.1144C18.9519 26.6145 18.6709 27.2928 18.6709 28C18.6709 28.7072 18.9519 29.3855 19.4519 29.8856C19.952 30.3857 20.6303 30.6667 21.3376 30.6667ZM24.0042 37.3333C24.0042 38.0406 23.7233 38.7189 23.2232 39.219C22.7231 39.719 22.0448 40 21.3376 40C20.6303 40 19.952 39.719 19.4519 39.219C18.9519 38.7189 18.6709 38.0406 18.6709 37.3333C18.6709 36.6261 18.9519 35.9478 19.4519 35.4477C19.952 34.9476 20.6303 34.6667 21.3376 34.6667C22.0448 34.6667 22.7231 34.9476 23.2232 35.4477C23.7233 35.9478 24.0042 36.6261 24.0042 37.3333ZM32.0042 21.3333C32.7115 21.3333 33.3898 21.0524 33.8898 20.5523C34.3899 20.0522 34.6709 19.3739 34.6709 18.6667C34.6709 17.9594 34.3899 17.2811 33.8898 16.781C33.3898 16.281 32.7115 16 32.0042 16C31.297 16 30.6187 16.281 30.1186 16.781C29.6185 17.2811 29.3376 17.9594 29.3376 18.6667C29.3376 19.3739 29.6185 20.0522 30.1186 20.5523C30.6187 21.0524 31.297 21.3333 32.0042 21.3333ZM34.6709 28C34.6709 28.7072 34.3899 29.3855 33.8898 29.8856C33.3898 30.3857 32.7115 30.6667 32.0042 30.6667C31.297 30.6667 30.6187 30.3857 30.1186 29.8856C29.6185 29.3855 29.3376 28.7072 29.3376 28C29.3376 27.2928 29.6185 26.6145 30.1186 26.1144C30.6187 25.6143 31.297 25.3333 32.0042 25.3333C32.7115 25.3333 33.3898 25.6143 33.8898 26.1144C34.3899 26.6145 34.6709 27.2928 34.6709 28ZM32.0042 40C32.7115 40 33.3898 39.719 33.8898 39.219C34.3899 38.7189 34.6709 38.0406 34.6709 37.3333C34.6709 36.6261 34.3899 35.9478 33.8898 35.4477C33.3898 34.9476 32.7115 34.6667 32.0042 34.6667C31.297 34.6667 30.6187 34.9476 30.1186 35.4477C29.6185 35.9478 29.3376 36.6261 29.3376 37.3333C29.3376 38.0406 29.6185 38.7189 30.1186 39.219C30.6187 39.719 31.297 40 32.0042 40ZM45.3376 37.3333C45.3376 38.0406 45.0566 38.7189 44.5565 39.219C44.0564 39.719 43.3781 40 42.6709 40C41.9637 40 41.2854 39.719 40.7853 39.219C40.2852 38.7189 40.0042 38.0406 40.0042 37.3333C40.0042 36.6261 40.2852 35.9478 40.7853 35.4477C41.2854 34.9476 41.9637 34.6667 42.6709 34.6667C43.3781 34.6667 44.0564 34.9476 44.5565 35.4477C45.0566 35.9478 45.3376 36.6261 45.3376 37.3333Z" fill="url(#paint4_linear_711_4943)"/>
<defs>
<linearGradient id="paint0_linear_711_4943" x1="10.6709" y1="6.9987" x2="61.5549" y2="59.1134" gradientUnits="userSpaceOnUse">
<stop stop-color="#29C3FF"/>
<stop offset="1" stop-color="#2764E7"/>
</linearGradient>
<linearGradient id="paint1_linear_711_4943" x1="33.5042" y1="44.7587" x2="43.3629" y2="55.8467" gradientUnits="userSpaceOnUse">
<stop stop-color="#0067BF"/>
<stop offset="1" stop-color="#003580"/>
</linearGradient>
<linearGradient id="paint2_linear_711_4943" x1="36.0709" y1="45.3307" x2="39.7448" y2="61.4958" gradientUnits="userSpaceOnUse">
<stop stop-color="#FDFDFD"/>
<stop offset="1" stop-color="#B3E0FF"/>
</linearGradient>
<linearGradient id="paint3_linear_711_4943" x1="21.6709" y1="45.3307" x2="25.6709" y2="61.3307" gradientUnits="userSpaceOnUse">
<stop stop-color="#FDFDFD"/>
<stop offset="1" stop-color="#B3E0FF"/>
</linearGradient>
<linearGradient id="paint4_linear_711_4943" x1="26.6709" y1="13.3333" x2="34.6709" y2="45.3333" gradientUnits="userSpaceOnUse">
<stop stop-color="#FDFDFD"/>
<stop offset="1" stop-color="#B3E0FF"/>
</linearGradient>
</defs>
</svg>
