<svg width="64" height="64" viewBox="0 0 64 64" fill="none" xmlns="http://www.w3.org/2000/svg">
<path d="M27.0647 23.4712L26.6229 24.0773L27.0647 23.4712ZM31.9987 8.28178L31.4911 8.83395C31.7781 9.09772 32.2193 9.09772 32.5062 8.83395L31.9987 8.28178ZM36.9327 23.4712L37.3745 24.0773L36.9327 23.4712ZM31.9987 25.8013L31.9987 26.5513L31.9987 25.8013ZM51.211 39.8474L50.7589 39.2489L51.211 39.8474ZM46.3918 43.4878L45.9398 42.8894L46.3918 43.4878ZM39.4095 39.4011L39.0253 40.0452L39.4095 39.4011ZM40.6082 40.3804L40.048 40.8791L40.6082 40.3804ZM40.0536 46.5851L39.9354 45.8445L40.0536 46.5851ZM38.8435 46.7431L38.7669 45.9971H38.7669L38.8435 46.7431ZM48.2586 53.5628L48.5847 54.2382L48.2586 53.5628ZM53.9185 49.9878L54.4281 50.538L53.9185 49.9878ZM58.1612 44.454L57.5248 44.057V44.057L58.1612 44.454ZM40.2727 46.072L40.7659 46.6371L40.2727 46.072ZM57.1308 39.8468L57.5827 39.2483L57.1308 39.8468ZM41.6172 55.502L41.4974 54.7617L41.6172 55.502ZM27.4022 55.189L27.5536 54.4545L27.4022 55.189ZM27.5065 22.8651C25.6297 21.4971 23.5812 19.8009 22.0091 17.9786C20.419 16.1354 19.4154 14.2765 19.4154 12.5714H17.9154C17.9154 14.8265 19.213 17.0337 20.8733 18.9584C22.5517 20.904 24.7028 22.6776 26.6229 24.0773L27.5065 22.8651ZM19.4154 12.5714C19.4154 9.28179 21.0812 7.14601 23.3213 6.39216C25.588 5.62937 28.6436 6.21656 31.4911 8.83395L32.5062 7.7296C29.354 4.83209 25.743 3.99454 22.8429 4.9705C19.9163 5.95541 17.9154 8.7219 17.9154 12.5714H19.4154ZM37.3745 24.0773C39.2946 22.6776 41.4457 20.904 43.1241 18.9584C44.7844 17.0337 46.082 14.8265 46.082 12.5714H44.582C44.582 14.2766 43.5784 16.1354 41.9883 17.9786C40.4163 19.8009 38.3677 21.4971 36.4909 22.8652L37.3745 24.0773ZM46.082 12.5714C46.082 8.72187 44.0811 5.9554 41.1545 4.9705C38.2544 3.99454 34.6434 4.83209 31.4911 7.7296L32.5062 8.83395C35.3538 6.21656 38.4094 5.62936 40.6761 6.39216C42.9161 7.146 44.582 9.28177 44.582 12.5714H46.082ZM26.6229 24.0773C28.7098 25.5986 29.9745 26.5513 31.9987 26.5513L31.9987 25.0513C30.5477 25.0513 29.6815 24.4506 27.5065 22.8651L26.6229 24.0773ZM36.4909 22.8652C34.316 24.4506 33.4497 25.0513 31.9987 25.0513L31.9987 26.5513C34.0229 26.5513 35.2876 25.5986 37.3745 24.0773L36.4909 22.8652ZM13.332 55.1177H19.3585V53.6177H13.332V55.1177ZM50.7589 39.2489L45.9398 42.8894L46.8439 44.0863L51.6631 40.4458L50.7589 39.2489ZM39.0253 40.0452C39.4161 40.2783 39.7589 40.5543 40.048 40.8791L41.1683 39.8817C40.7668 39.4307 40.3015 39.0598 39.7937 38.757L39.0253 40.0452ZM39.9354 45.8445C39.6537 45.8894 39.3581 45.9304 39.0493 45.9662L39.222 47.4562C39.5522 47.418 39.869 47.374 40.1717 47.3258L39.9354 45.8445ZM39.0493 45.9662C38.9564 45.977 38.8623 45.9873 38.7669 45.9971L38.9201 47.4892C39.0219 47.4788 39.1226 47.4678 39.222 47.4562L39.0493 45.9662ZM38.7669 45.9971C37.4171 46.1356 35.8337 46.1719 34.0739 46.0057L33.9329 47.4991C35.7966 47.675 37.4787 47.6372 38.9201 47.4892L38.7669 45.9971ZM48.5847 54.2382C50.4547 53.3356 52.8142 52.0328 54.4281 50.538L53.4089 49.4376C51.9668 50.7732 49.7767 51.9972 47.9326 52.8873L48.5847 54.2382ZM54.4281 50.538C56.0336 49.0511 57.6673 46.6626 58.7975 44.851L57.5248 44.057C56.3994 45.861 54.855 48.0982 53.4089 49.4376L54.4281 50.538ZM39.7795 45.507C39.4621 45.784 39.19 45.9325 38.9785 45.9779L39.2928 47.4446C39.8589 47.3233 40.3589 46.9923 40.7659 46.6371L39.7795 45.507ZM38.9785 45.9779C38.9285 45.9886 38.8838 45.9931 38.8435 45.9931V47.4931C38.9979 47.4931 39.1481 47.4756 39.2928 47.4446L38.9785 45.9779ZM40.048 40.8791C41.2673 42.2487 41.171 44.2925 39.7795 45.507L40.7659 46.6371C42.8048 44.8575 42.9255 41.8553 41.1683 39.8817L40.048 40.8791ZM39.7937 38.757C35.8464 36.4026 30.8701 36.1558 26.0602 37.0876C21.2409 38.0213 16.4877 40.1558 12.8982 42.7014L13.7659 43.9249C17.1881 41.498 21.7439 39.4518 26.3455 38.5603C30.9566 37.6669 35.5131 37.9504 39.0253 40.0452L39.7937 38.757ZM45.9398 42.8894C44.0931 44.2844 42.1758 45.4871 39.9354 45.8445L40.1717 47.3258C42.7921 46.9078 44.9552 45.5131 46.8439 44.0863L45.9398 42.8894ZM57.5827 39.2483C55.616 37.7632 52.7253 37.7635 50.7589 39.2489L51.6631 40.4458C53.0945 39.3645 55.2471 39.3643 56.6788 40.4453L57.5827 39.2483ZM56.6788 40.4453C57.9463 41.4024 58.2562 42.8847 57.5248 44.057L58.7975 44.851C60.0004 42.9229 59.3747 40.6014 57.5827 39.2483L56.6788 40.4453ZM41.7371 56.2424C44.0866 55.8621 46.4374 55.2746 48.5847 54.2382L47.9326 52.8873C45.9655 53.8368 43.7711 54.3936 41.4974 54.7617L41.7371 56.2424ZM27.2509 55.9236C31.9797 56.8979 36.9577 57.016 41.7371 56.2424L41.4974 54.7617C36.9002 55.5058 32.106 55.3924 27.5536 54.4545L27.2509 55.9236ZM19.3585 55.1177C22.0029 55.1177 24.6768 55.3933 27.2509 55.9236L27.5536 54.4545C24.8807 53.9038 22.1054 53.6177 19.3585 53.6177V55.1177ZM6.83203 38.082H11.832V36.582H6.83203V38.082ZM12.582 38.832V57.1654H14.082V38.832H12.582ZM11.832 57.9154H6.83203V59.4154H11.832V57.9154ZM6.08203 57.1654V38.832H4.58203V57.1654H6.08203ZM6.83203 57.9154C6.41782 57.9154 6.08203 57.5796 6.08203 57.1654H4.58203C4.58203 58.408 5.58939 59.4154 6.83203 59.4154V57.9154ZM12.582 57.1654C12.582 57.5796 12.2462 57.9154 11.832 57.9154V59.4154C13.0747 59.4154 14.082 58.408 14.082 57.1654H12.582ZM11.832 38.082C12.2462 38.082 12.582 38.4178 12.582 38.832H14.082C14.082 37.5894 13.0747 36.582 11.832 36.582V38.082ZM6.83203 36.582C5.58939 36.582 4.58203 37.5894 4.58203 38.832H6.08203C6.08203 38.4178 6.41782 38.082 6.83203 38.082V36.582Z" fill="#0092F3"/>
</svg>
