<svg width="64" height="64" viewBox="0 0 64 64" fill="none" xmlns="http://www.w3.org/2000/svg">
<path d="M58.6654 45.332V31.9987C58.6654 17.2711 46.7263 5.33203 31.9987 5.33203C17.2711 5.33203 5.33203 17.2711 5.33203 31.9987V47.9987" stroke="#0D6EFD" stroke-width="1.5"/>
<path d="M21.332 40.5003C21.332 38.958 21.332 38.1868 21.148 37.5743C20.7223 36.1581 19.6109 35.0839 18.2275 34.7516C17.6292 34.6078 16.8941 34.6685 15.424 34.7899C12.8726 35.0006 11.597 35.1059 10.5569 35.5082C8.1588 36.4358 6.32911 38.5065 5.63364 41.0798C5.33203 42.1958 5.33203 43.5341 5.33203 46.2107V46.7052C5.33203 49.4495 5.33203 50.8217 5.66016 51.9827C6.30413 54.2613 7.84402 56.146 9.89558 57.1667C10.9409 57.6867 12.2369 57.9007 14.8288 58.3287C16.5489 58.6128 17.4089 58.7548 18.1049 58.6114C19.4764 58.329 20.6074 57.3182 21.0881 55.9455C21.332 55.2488 21.332 54.3382 21.332 52.517V40.5003Z" stroke="#0D6EFD" stroke-width="1.5"/>
<path d="M42.668 40.5003C42.668 38.958 42.668 38.1868 42.852 37.5743C43.2777 36.1581 44.3891 35.0839 45.7725 34.7516C46.3708 34.6078 47.1059 34.6685 48.576 34.7899C51.1274 35.0006 52.403 35.1059 53.4431 35.5082C55.8412 36.4358 57.6709 38.5065 58.3664 41.0798C58.668 42.1958 58.668 43.5341 58.668 46.2107V46.7052C58.668 49.4495 58.668 50.8217 58.3398 51.9827C57.6959 54.2613 56.156 56.146 54.1044 57.1667C53.0591 57.6867 51.7631 57.9007 49.1712 58.3287C47.4511 58.6128 46.5911 58.7548 45.8951 58.6114C44.5236 58.329 43.3926 57.3182 42.9119 55.9455C42.668 55.2488 42.668 54.3382 42.668 52.517V40.5003Z" stroke="#0D6EFD" stroke-width="1.5"/>
<path d="M32 17.332L32 30.6654" stroke="#0D6EFD" stroke-width="1.5" stroke-linecap="round"/>
<path d="M40 21.332L40 26.6654" stroke="#0D6EFD" stroke-width="1.5" stroke-linecap="round"/>
<path d="M24 21.332L24 26.6654" stroke="#0D6EFD" stroke-width="1.5" stroke-linecap="round"/>
</svg>
