<svg width="40" height="40" viewBox="0 0 40 40" fill="none" xmlns="http://www.w3.org/2000/svg">
<circle cx="20" cy="20" r="5" stroke="#0092F3" stroke-width="1.5"/>
<path d="M22.9423 3.58708C22.3297 3.33334 21.5531 3.33334 20 3.33334C18.4469 3.33334 17.6703 3.33334 17.0577 3.58708C16.241 3.92539 15.592 4.57431 15.2537 5.39107C15.0993 5.76391 15.0389 6.19751 15.0152 6.83C14.9804 7.75948 14.5038 8.61983 13.6983 9.08489C12.8927 9.54995 11.9093 9.53258 11.087 9.09794C10.5274 8.80218 10.1217 8.63771 9.72158 8.58504C8.84509 8.46965 7.95865 8.70716 7.25729 9.24534C6.73126 9.64898 6.34298 10.3215 5.56641 11.6666C4.78984 13.0116 4.40155 13.6841 4.31501 14.3415C4.19962 15.218 4.43714 16.1044 4.97531 16.8058C5.22096 17.1259 5.56619 17.3951 6.102 17.7317C6.88968 18.2267 7.3965 19.0698 7.39645 20C7.3964 20.9302 6.8896 21.7732 6.10199 22.2681C5.5661 22.6048 5.22082 22.8739 4.97515 23.1941C4.43697 23.8955 4.19945 24.7819 4.31485 25.6584C4.40139 26.3158 4.78967 26.9883 5.56624 28.3333C6.34281 29.6784 6.7311 30.3509 7.25712 30.7546C7.95849 31.2927 8.84492 31.5303 9.72142 31.4149C10.1215 31.3622 10.5272 31.1977 11.0868 30.902C11.9091 30.4674 12.8926 30.45 13.6982 30.9151C14.5038 31.3802 14.9804 32.2406 15.0152 33.1701C15.0389 33.8026 15.0993 34.2361 15.2537 34.609C15.592 35.4257 16.241 36.0746 17.0577 36.4129C17.6703 36.6667 18.4469 36.6667 20 36.6667C21.5531 36.6667 22.3297 36.6667 22.9423 36.4129C23.759 36.0746 24.408 35.4257 24.7463 34.609C24.9007 34.2361 24.9611 33.8025 24.9848 33.17C25.0195 32.2405 25.4962 31.3802 26.3016 30.9151C27.1072 30.4499 28.0907 30.4673 28.9131 30.9019C29.4726 31.1976 29.8783 31.3621 30.2784 31.4148C31.1549 31.5301 32.0413 31.2926 32.7427 30.7544C33.2687 30.3508 33.657 29.6783 34.4336 28.3332C35.2102 26.9882 35.5985 26.3156 35.685 25.6583C35.8004 24.7818 35.5629 23.8954 35.0247 23.194C34.779 22.8738 34.4338 22.6047 33.8979 22.268C33.1103 21.7731 32.6035 20.9301 32.6036 19.9999C32.6036 19.0698 33.1104 18.2268 33.8979 17.732C34.4339 17.3953 34.7792 17.1261 35.0249 16.8059C35.563 16.1046 35.8005 15.2181 35.6852 14.3416C35.5986 13.6843 35.2103 13.0117 34.4338 11.6667C33.6572 10.3216 33.2689 9.64909 32.7429 9.24546C32.0415 8.70728 31.1551 8.46976 30.2786 8.58515C29.8785 8.63783 29.4728 8.80227 28.9132 9.098C28.0909 9.53266 27.1074 9.55004 26.3018 9.08495C25.4962 8.61985 25.0196 7.75944 24.9848 6.82991C24.9611 6.19747 24.9007 5.76389 24.7463 5.39107C24.408 4.57431 23.759 3.92539 22.9423 3.58708Z" stroke="#0092F3" stroke-width="1.5"/>
</svg>
