<svg width="431" height="411" viewBox="0 0 431 411" fill="none" xmlns="http://www.w3.org/2000/svg">
<path d="M419.407 250.828C419.407 266.667 413.478 280.767 404.229 289.912C398.409 295.879 390.696 299.64 382.41 300.552C381.854 300.552 381.28 300.639 380.671 300.656H379.333C362.538 300.656 348.143 287.808 342.197 269.57C340.219 263.508 339.221 257.17 339.241 250.794C339.241 235.442 344.804 221.742 353.55 212.545C356.825 208.945 360.802 206.054 365.236 204.047C369.669 202.041 374.467 200.963 379.333 200.879C401.395 200.966 419.407 223.289 419.407 250.828Z" fill="#8EC4FF"/>
<path d="M404.141 289.908C398.32 295.876 390.608 299.637 382.322 300.548C381.765 300.548 381.192 300.635 380.583 300.652H379.244C362.45 300.652 348.054 287.804 342.108 269.566C360.642 280.433 367.892 302.599 400.438 291.246C401.637 290.968 402.872 290.429 404.141 289.908Z" fill="#6CAAF4"/>
<path d="M400.438 291.283C398.194 293.963 395.434 296.164 392.322 297.756C389.209 299.348 385.809 300.298 382.323 300.55C381.766 300.55 381.192 300.637 380.584 300.654H379.245C374.304 300.652 369.392 299.902 364.676 298.429C335.259 289.736 302.244 268.282 280.894 254.964L280.598 254.773C275.574 251.626 271.227 248.966 267.733 247.019L265.994 246.097C258.118 241.925 251.755 232.571 247.878 221.757C247.131 219.636 246.47 217.463 245.914 215.255C238.959 188.116 247.391 156.143 284.44 168.852C291.395 171.234 300.592 176.137 310.85 182.535C325.538 191.854 339.737 201.923 353.393 212.699C377.576 231.563 398.856 250.948 403.533 259.415C406.106 264.47 407.181 270.155 406.633 275.8C406.084 281.446 403.935 286.817 400.438 291.283Z" fill="#8EC4FF"/>
<path d="M310.919 182.466C305.133 182.023 299.313 182.409 293.637 183.614C283.727 185.718 271.87 190.846 264.551 203.19C260.221 210.345 254.582 216.621 247.93 221.689C237.898 193.541 244.453 155.066 284.44 168.784C291.464 171.166 300.661 176.068 310.919 182.466Z" fill="#8EC4FF"/>
<path d="M298.749 164.944C295.619 164.179 299.983 153.104 308.311 142.672C316.152 132.849 321.107 127.495 323.489 130.781C324.949 132.763 322.793 164.057 298.749 164.944Z" fill="#6CAAF4"/>
<path d="M311.91 165.918C301.931 152.009 295.359 140.604 290.682 136.849C286.006 133.094 281.694 131.233 281.19 126.852C281.058 123.697 281.8 120.566 283.334 117.805C284.868 115.044 287.134 112.76 289.883 111.205C296.837 107.223 327.297 144.638 327.297 144.638C327.297 144.638 328.305 163.293 311.91 165.918Z" fill="#FEBD9D"/>
<path d="M262.934 90.4108C268.863 84.517 275.104 85.4732 288.422 97.8171C301.739 110.161 316.465 116.576 319.577 126.556C322.967 137.335 313.944 145.889 301.913 144.446C297.688 143.942 291.065 143.194 297.689 128.051L279.885 113.082C279.885 113.082 274.931 120.523 267.316 118.419C259.457 116.246 249.147 104.163 262.934 90.4108Z" fill="white" stroke="#DDDDDD" stroke-width="1.65165" stroke-linecap="round" stroke-linejoin="round"/>
<path d="M300.714 115.098C303.583 116.576 311.511 105.136 307.669 102.928C302.662 99.9029 297.846 113.638 300.714 115.098Z" fill="#FEBD9D"/>
<path d="M297.706 128.052C299.729 124.515 302.919 121.792 306.729 120.35" stroke="#DDDDDD" stroke-width="1.65165" stroke-linecap="round" stroke-linejoin="round"/>
<path d="M279.938 113.081C281.007 111.533 281.747 109.782 282.112 107.937C282.477 106.092 282.459 104.191 282.059 102.354" stroke="#DDDDDD" stroke-width="1.65165" stroke-linecap="round" stroke-linejoin="round"/>
<path d="M280.007 128.85C282.354 134.17 289.117 126.416 291.899 118.958C294.559 111.847 293.916 110.265 289.865 110.978C285.814 111.691 276.843 121.774 280.007 128.85Z" fill="#FEBD9D"/>
<path d="M285.953 105.345C289.17 106.979 298.123 94.3572 293.846 91.8885C288.126 88.5678 282.702 103.711 285.953 105.345Z" fill="#FEBD9D"/>
<path d="M291.03 108.039C294.264 109.674 303.2 97.0343 298.94 94.5655C293.221 91.2622 287.796 106.405 291.03 108.039Z" fill="#FEBD9D"/>
<path d="M295.968 111.899C299.046 113.464 307.599 101.364 303.531 98.9991C298.089 95.7306 292.891 110.248 295.968 111.899Z" fill="#FEBD9D"/>
<path d="M298.749 164.942C311.388 182.763 346.194 234.485 359.355 251.871C376.411 274.473 417.25 278.106 417.267 234.955C417.267 213.57 323.489 130.762 323.489 130.762C323.489 130.762 318.725 156.093 298.749 164.942Z" fill="#8EC4FF"/>
<path d="M310.781 170.176C326.341 164.96 331.643 147.383 331.643 147.383" stroke="#6CAAF4" stroke-width="1.23439" stroke-linecap="round" stroke-linejoin="round"/>
<path d="M318.012 138.395C341.222 170.471 349.498 192.377 343.969 200.983C338.441 209.589 326.01 204.913 327.262 197.715C329 188.726 343.935 186.431 337.693 210.598C331.452 234.764 314.535 236.85 311.614 230.122C307.459 220.838 324.758 210.998 326.549 235.338C328.34 259.678 301.183 265.832 293.516 259.678C285.849 253.523 307.337 237.615 307.007 264.389C306.677 291.163 275.052 291.963 260.778 288.382" stroke="white" stroke-width="3.32069" stroke-linecap="round" stroke-linejoin="round"/>
<path d="M298.749 164.943C311.388 182.764 346.194 234.487 359.355 251.872C363.26 256.983 368.27 261.144 374.012 264.042" stroke="#6CAAF4" stroke-width="1.23439" stroke-linecap="round" stroke-linejoin="round"/>
<path d="M108.705 311.399C108.779 317.698 107.374 323.926 104.602 329.582C101.83 335.238 97.7685 340.164 92.7447 343.963C86.8939 348.269 79.8244 350.601 72.5598 350.622H72.4555C67.9021 350.603 63.4004 349.656 59.2249 347.84C45.8726 342.103 36.4321 327.951 36.4321 311.33V310.391C36.5021 304.856 37.7096 299.395 39.9797 294.346C42.2498 289.297 45.5339 284.77 49.6279 281.044C53.8619 277.241 58.9577 274.526 64.4754 273.133C67.118 272.464 69.8336 272.125 72.5598 272.125C86.8857 272.125 99.2818 281.183 105.123 294.309C106.414 297.19 107.36 300.213 107.94 303.315C108.465 305.978 108.721 308.686 108.705 311.399Z" fill="#8EC4FF"/>
<path d="M72.4555 350.621C67.9021 350.602 63.4004 349.655 59.2249 347.839C45.8726 342.102 36.4321 327.95 36.4321 311.329V310.39C36.5021 304.855 37.7096 299.394 39.9797 294.345C42.2498 289.296 45.5339 284.769 49.6279 281.043C46.7245 319.274 50.8276 338.972 72.4555 350.621Z" fill="#8EC4FF"/>
<path d="M181.011 197.35C180.02 200.497 178.855 203.73 177.534 207.016C176.212 210.302 175.013 213.084 173.57 216.161C173.1 217.135 172.631 218.091 172.144 219.065C170.649 222.113 169.026 225.167 167.276 228.227C166.685 229.27 166.111 230.296 165.538 231.304C155.237 248.293 143.548 264.401 130.592 279.463C127.619 282.94 124.577 286.417 121.465 289.738L119.274 292.068C116.962 294.502 114.632 296.901 112.32 299.213C110.877 300.621 109.434 302.03 107.991 303.368C90.4136 319.902 72.2976 331.933 57.5719 332.264C56.2003 332.303 54.8278 332.227 53.4688 332.038C49.4433 331.593 45.6748 329.841 42.7418 327.048C38.8126 323.223 36.7263 317.468 36.4829 310.444C36.083 297.336 42.1507 279.828 54.7554 262.355C55.4508 261.399 56.1636 260.391 56.9112 259.33C69.2551 241.632 87.4754 211.624 107.678 187.214C126.194 164.821 146.448 147.122 165.433 147.992C166.954 148.054 168.466 148.246 169.954 148.565C186.435 152.008 188.835 172.262 181.011 197.35Z" fill="#8EC4FF"/>
<path d="M181.012 197.35C172.163 186.501 162.357 180.607 146.24 180.52C136.243 180.52 123.83 182.659 107.713 187.231C126.194 164.821 146.449 147.122 165.434 147.992C166.955 148.054 168.467 148.246 169.955 148.565C186.436 152.008 188.835 172.262 181.012 197.35Z" fill="#8EC4FF"/>
<path d="M293.636 183.618C292.94 198.987 286.386 228.143 281.796 250.414C281.5 251.892 281.187 253.422 280.892 254.969C275.189 284.316 269.452 328.268 269.417 334.944C269.417 357.111 254.048 353.112 211.123 351.912C189.982 351.321 166.633 350.539 149.195 347.062C144.279 346.161 139.463 344.781 134.817 342.941C126.489 339.464 121.673 334.561 122.507 327.52C122.627 326.657 122.807 325.803 123.046 324.964C127.223 310.133 129.753 294.886 130.592 279.501C131.2 271.138 131.531 262.706 131.93 253.996C132.243 246.589 132.609 238.992 133.234 231.116C134.434 215.312 139.928 196.344 146.152 180.558C153.298 162.39 161.434 148.36 165.276 148.047H165.52C172.648 147.508 190.729 149.924 217.225 150.446C228.443 150.701 239.55 152.725 250.136 156.444C254.778 158.078 273.451 163.52 284.578 168.84C287.533 170.02 290.213 171.796 292.453 174.056C293.514 175.464 293.862 178.889 293.636 183.618Z" fill="#8EC4FF"/>
<path d="M310.918 182.468C305.132 182.025 299.312 182.411 293.636 183.615C283.726 185.719 271.869 190.848 264.55 203.192C260.22 210.347 254.581 216.622 247.929 221.69C230.543 234.904 207.263 238.902 192.294 214.145C188.902 208.287 185.102 202.675 180.924 197.35C172.075 186.501 162.269 180.608 146.152 180.521C136.156 180.521 123.742 182.659 107.625 187.232C126.194 164.821 146.448 147.123 165.433 147.992C172.561 147.453 190.643 149.87 217.139 150.391C228.356 150.646 239.463 152.67 250.05 156.389C254.692 158.024 273.364 163.465 284.491 168.785C291.463 171.167 300.66 176.07 310.918 182.468Z" fill="#8EC4FF"/>
<path d="M166.219 228.298L166.962 222.747L167.818 222.862L167.075 228.413L166.219 228.298ZM166.916 225.986L167.026 225.161L169.889 225.545L169.778 226.369L166.916 225.986ZM167.232 223.623L167.342 222.798L170.562 223.229L170.451 224.054L167.232 223.623ZM172.527 229.223C172.12 229.169 171.768 229.027 171.47 228.799C171.178 228.566 170.962 228.276 170.82 227.929C170.679 227.577 170.636 227.192 170.692 226.774C170.748 226.356 170.89 225.999 171.118 225.701C171.347 225.398 171.632 225.175 171.974 225.033C172.322 224.886 172.7 224.839 173.107 224.894C173.508 224.948 173.855 225.091 174.147 225.324C174.445 225.552 174.664 225.842 174.805 226.195C174.947 226.542 174.99 226.924 174.934 227.342C174.878 227.76 174.736 228.12 174.507 228.423C174.279 228.721 173.991 228.943 173.643 229.09C173.301 229.233 172.929 229.277 172.527 229.223ZM172.627 228.478C172.875 228.511 173.105 228.48 173.317 228.385C173.53 228.284 173.706 228.135 173.845 227.939C173.985 227.737 174.071 227.501 174.101 227.23C174.143 226.956 174.123 226.706 174.04 226.48C173.958 226.248 173.828 226.058 173.649 225.911C173.469 225.763 173.255 225.672 173.007 225.639C172.758 225.606 172.525 225.639 172.307 225.739C172.096 225.835 171.92 225.983 171.78 226.185C171.64 226.382 171.555 226.615 171.524 226.885C171.483 227.154 171.503 227.405 171.585 227.636C171.668 227.862 171.799 228.052 171.977 228.205C172.162 228.354 172.378 228.445 172.627 228.478ZM175.545 229.546L176.102 225.384L176.927 225.494L176.752 226.802L176.715 226.475C176.8 226.281 176.922 226.112 177.081 225.967C177.246 225.822 177.425 225.714 177.617 225.643C177.815 225.573 178.011 225.55 178.207 225.577C178.297 225.589 178.38 225.608 178.458 225.634C178.54 225.662 178.604 225.689 178.648 225.716L178.315 226.576C178.256 226.541 178.187 226.51 178.11 226.484C178.039 226.453 177.966 226.432 177.892 226.422C177.749 226.403 177.608 226.414 177.468 226.454C177.334 226.49 177.21 226.552 177.096 226.639C176.988 226.721 176.897 226.824 176.821 226.949C176.746 227.068 176.698 227.204 176.677 227.357L176.369 229.657L175.545 229.546ZM180.497 230.29C180.069 230.233 179.7 230.092 179.391 229.868C179.088 229.639 178.863 229.353 178.715 229.01C178.572 228.668 178.529 228.291 178.584 227.879C178.628 227.551 178.72 227.26 178.862 227.004C179.004 226.749 179.181 226.536 179.392 226.365C179.609 226.189 179.854 226.066 180.127 225.995C180.407 225.92 180.699 225.902 181.006 225.943C181.276 225.979 181.52 226.066 181.738 226.203C181.957 226.334 182.139 226.501 182.284 226.704C182.435 226.907 182.538 227.139 182.595 227.399C182.657 227.655 182.667 227.928 182.622 228.218L182.568 228.566L179.166 228.11L179.071 227.436L181.949 227.821L181.812 227.94L181.838 227.75C181.845 227.573 181.808 227.409 181.726 227.259C181.644 227.108 181.531 226.982 181.389 226.882C181.246 226.783 181.085 226.721 180.905 226.697C180.62 226.658 180.372 226.682 180.161 226.767C179.952 226.846 179.782 226.985 179.654 227.183C179.526 227.376 179.441 227.625 179.4 227.932C179.361 228.223 179.388 228.484 179.48 228.717C179.574 228.945 179.724 229.132 179.93 229.278C180.136 229.424 180.385 229.517 180.676 229.555C180.882 229.583 181.077 229.574 181.26 229.529C181.449 229.484 181.659 229.386 181.889 229.234L182.224 229.868C182.08 229.978 181.909 230.068 181.712 230.138C181.519 230.209 181.316 230.26 181.102 230.291C180.894 230.317 180.692 230.316 180.497 230.29ZM183.211 230.573L183.996 224.705L184.813 224.815L184.47 227.376L184.315 227.452C184.392 227.274 184.518 227.118 184.692 226.986C184.866 226.848 185.066 226.745 185.29 226.678C185.515 226.606 185.738 226.585 185.96 226.615C186.277 226.657 186.533 226.756 186.728 226.911C186.923 227.061 187.056 227.27 187.128 227.538C187.2 227.806 187.21 228.133 187.158 228.519L186.818 231.056L186.002 230.947L186.334 228.465C186.366 228.227 186.36 228.027 186.317 227.865C186.275 227.698 186.193 227.571 186.07 227.485C185.947 227.393 185.788 227.34 185.591 227.324C185.432 227.303 185.283 227.31 185.144 227.345C185.006 227.375 184.88 227.428 184.768 227.504C184.66 227.581 184.57 227.677 184.495 227.791C184.427 227.9 184.383 228.023 184.365 228.161L184.027 230.682L183.623 230.628C183.554 230.619 183.486 230.61 183.417 230.6C183.348 230.591 183.279 230.582 183.211 230.573ZM189.858 231.544C189.43 231.486 189.062 231.345 188.753 231.121C188.45 230.892 188.224 230.606 188.077 230.264C187.934 229.922 187.89 229.545 187.946 229.132C187.989 228.805 188.082 228.513 188.224 228.258C188.366 228.002 188.542 227.789 188.754 227.618C188.971 227.443 189.216 227.32 189.489 227.249C189.768 227.173 190.061 227.156 190.368 227.197C190.637 227.233 190.881 227.319 191.1 227.456C191.319 227.588 191.501 227.755 191.646 227.957C191.797 228.16 191.9 228.392 191.957 228.652C192.019 228.908 192.028 229.181 191.984 229.471L191.93 229.819L188.528 229.364L188.433 228.689L191.311 229.075L191.174 229.193L191.199 229.003C191.207 228.827 191.17 228.663 191.088 228.512C191.006 228.361 190.893 228.236 190.751 228.136C190.608 228.036 190.447 227.974 190.267 227.95C189.981 227.912 189.734 227.935 189.523 228.02C189.313 228.099 189.144 228.238 189.015 228.436C188.887 228.629 188.803 228.879 188.762 229.185C188.723 229.476 188.75 229.738 188.842 229.971C188.935 230.199 189.085 230.385 189.292 230.531C189.498 230.677 189.747 230.77 190.038 230.809C190.244 230.836 190.439 230.828 190.622 230.782C190.811 230.738 191.021 230.639 191.251 230.487L191.586 231.121C191.442 231.231 191.271 231.321 191.073 231.391C190.881 231.463 190.678 231.513 190.464 231.544C190.256 231.57 190.054 231.57 189.858 231.544ZM194.164 232.12C193.82 232.074 193.518 231.937 193.258 231.708C193.003 231.48 192.814 231.191 192.688 230.841C192.563 230.491 192.528 230.109 192.583 229.697C192.639 229.279 192.773 228.921 192.985 228.621C193.204 228.316 193.471 228.091 193.786 227.945C194.107 227.8 194.45 227.751 194.815 227.8C195.031 227.829 195.225 227.887 195.397 227.975C195.568 228.062 195.712 228.173 195.828 228.307C195.951 228.437 196.044 228.581 196.109 228.74C196.179 228.9 196.214 229.066 196.212 229.238L196.038 229.151L196.183 228.072L197.007 228.183L196.45 232.345L195.625 232.235L195.758 231.244L195.956 231.214C195.905 231.352 195.82 231.484 195.701 231.608C195.588 231.727 195.448 231.829 195.281 231.914C195.119 232 194.941 232.063 194.747 232.101C194.559 232.141 194.364 232.147 194.164 232.12ZM194.478 231.395C194.727 231.429 194.954 231.397 195.161 231.301C195.368 231.205 195.538 231.058 195.672 230.861C195.812 230.659 195.9 230.421 195.937 230.146C195.973 229.876 195.95 229.628 195.867 229.402C195.79 229.176 195.664 228.99 195.49 228.843C195.316 228.696 195.105 228.606 194.856 228.573C194.613 228.54 194.388 228.572 194.182 228.668C193.981 228.765 193.81 228.911 193.671 229.108C193.537 229.305 193.452 229.539 193.416 229.808C193.379 230.083 193.399 230.336 193.476 230.567C193.558 230.793 193.684 230.98 193.853 231.126C194.027 231.273 194.235 231.363 194.478 231.395ZM199.316 232.81C198.935 232.759 198.607 232.621 198.33 232.395C198.06 232.165 197.859 231.878 197.728 231.532C197.597 231.181 197.56 230.796 197.616 230.379C197.672 229.961 197.806 229.602 198.018 229.303C198.236 228.998 198.506 228.773 198.827 228.628C199.148 228.477 199.497 228.427 199.872 228.477C200.078 228.505 200.272 228.566 200.453 228.66C200.64 228.75 200.802 228.863 200.94 229C201.078 229.131 201.181 229.271 201.247 229.42C201.319 229.564 201.346 229.705 201.328 229.843L201.088 229.827L201.46 227.043L202.277 227.153L201.491 233.02L200.675 232.911L200.807 231.92L200.966 231.941C200.949 232.068 200.89 232.189 200.788 232.305C200.687 232.415 200.558 232.513 200.402 232.6C200.25 232.687 200.077 232.75 199.884 232.789C199.696 232.828 199.506 232.835 199.316 232.81ZM199.522 232.119C199.77 232.152 199.998 232.118 200.205 232.017C200.412 231.915 200.583 231.763 200.718 231.561C200.859 231.354 200.948 231.11 200.986 230.83C201.023 230.55 201.001 230.294 200.919 230.062C200.843 229.826 200.718 229.632 200.545 229.479C200.372 229.327 200.161 229.234 199.912 229.201C199.664 229.168 199.436 229.202 199.229 229.303C199.021 229.405 198.847 229.559 198.707 229.766C198.572 229.969 198.486 230.21 198.448 230.49C198.411 230.77 198.43 231.029 198.506 231.265C198.588 231.496 198.716 231.688 198.889 231.841C199.062 231.993 199.273 232.086 199.522 232.119ZM203.993 233.436C203.644 233.389 203.337 233.286 203.073 233.127C202.81 232.968 202.601 232.757 202.448 232.495L203.067 232.093C203.2 232.299 203.354 232.457 203.528 232.567C203.708 232.671 203.916 232.74 204.154 232.772C204.249 232.784 204.338 232.785 204.42 232.775C204.508 232.76 204.585 232.732 204.649 232.693C204.719 232.653 204.774 232.604 204.814 232.545C204.855 232.481 204.881 232.409 204.891 232.329C204.91 232.192 204.874 232.074 204.785 231.976C204.737 231.932 204.658 231.881 204.548 231.823C204.443 231.761 204.304 231.694 204.131 231.622C203.835 231.502 203.596 231.378 203.413 231.252C203.231 231.125 203.096 230.991 203.007 230.85C202.941 230.739 202.898 230.623 202.876 230.502C202.855 230.375 202.855 230.241 202.874 230.098C202.897 229.924 202.955 229.77 203.048 229.637C203.148 229.5 203.27 229.387 203.417 229.299C203.569 229.206 203.739 229.143 203.926 229.109C204.119 229.076 204.319 229.073 204.525 229.1C204.72 229.126 204.91 229.179 205.093 229.257C205.281 229.336 205.451 229.437 205.601 229.559C205.752 229.682 205.873 229.819 205.966 229.971L205.429 230.424C205.342 230.31 205.243 230.208 205.131 230.118C205.025 230.023 204.915 229.946 204.799 229.888C204.683 229.829 204.575 229.793 204.474 229.78C204.363 229.765 204.261 229.762 204.169 229.771C204.076 229.78 203.995 229.801 203.926 229.835C203.862 229.87 203.81 229.917 203.77 229.976C203.73 230.035 203.704 230.104 203.694 230.184C203.69 230.253 203.697 230.321 203.715 230.388C203.739 230.451 203.774 230.506 203.821 230.556C203.874 230.606 203.955 230.662 204.065 230.726C204.175 230.789 204.317 230.854 204.491 230.92C204.746 231.024 204.953 231.13 205.11 231.237C205.274 231.34 205.399 231.45 205.486 231.57C205.578 231.684 205.636 231.81 205.661 231.948C205.685 232.086 205.687 232.237 205.665 232.401C205.633 232.639 205.536 232.844 205.373 233.015C205.216 233.183 205.017 233.304 204.775 233.379C204.534 233.455 204.273 233.474 203.993 233.436Z" fill="#0F5B8D"/>
<path d="M239.1 177.21C239.1 177.21 241.468 193.781 243.242 195.471L251.262 198.065C254.707 193.691 257.758 189.021 260.379 184.109L253.581 170.267L239.1 177.21Z" fill="white"/>
<path d="M243.783 193.695L218.331 264.633C218.331 264.633 219.675 274.525 229.251 290.239C229.251 290.239 241.514 276.852 244.382 270.839L251.929 195.722L243.783 193.695Z" fill="white"/>
<path d="M224.807 144.617C220.286 144.756 210.898 148.911 210.898 152.702C210.898 156.492 219.347 186.517 232.943 193.993C232.943 193.993 238.159 178.346 251.928 176.103L224.807 144.617Z" fill="white"/>
<path d="M251.876 176.106C257.224 182.685 261.663 189.953 265.072 197.716C265.072 197.716 278.494 180.157 276.651 165.97C276.355 163.605 264.481 157.938 264.481 157.938L251.876 176.106Z" fill="white"/>
<path d="M280.893 254.966C281.188 253.419 281.501 251.889 281.797 250.411C283.674 241.336 285.865 231.13 287.864 221.168C288.003 220.455 288.125 219.76 288.264 219.064" stroke="#6CAAF4" stroke-width="1.23439" stroke-linecap="round" stroke-linejoin="round"/>
<path d="M131.506 278.113C131.801 276.565 132.114 275.035 132.41 273.558C134.288 264.482 136.478 254.277 138.478 244.315C138.617 243.602 138.738 242.906 138.877 242.211" stroke="#6CAAF4" stroke-width="1.23439" stroke-linecap="round" stroke-linejoin="round"/>
<path d="M268.147 161.275C268.147 161.275 262.688 177.357 251.596 177.322C233.497 177.322 222.197 148.253 222.197 148.253C227.76 125.651 227.204 115.22 227.204 115.22C226.595 100.303 260.828 80.6222 265.557 124.904L265.974 130.78L267.434 151.313L268.147 161.275Z" fill="#FEBD9D"/>
<path d="M267.367 151.314C255.719 150.931 245.079 144.864 244.522 130.781H265.907L267.367 151.314Z" fill="#F4A789"/>
<path d="M264.5 72.068C263.926 76.0842 258.763 78.7442 258.763 78.7442L246.888 96.4429C246.888 96.4429 236.126 108.769 224.634 107.518C222.944 107.324 221.298 106.848 219.766 106.109C214.098 103.362 217.402 98.0076 216.289 96.2864C215.176 94.5652 212.342 94.3218 211.647 91.0707C210.952 87.8196 216.115 88.0977 213.925 84.638C211.734 81.1782 210.447 78.3443 214.081 75.8234C217.715 73.3024 214.22 72.3462 216.532 68.3301C218.271 65.218 221.314 68.9908 222.409 64.8529C223.504 60.7151 226.825 62.2103 229.207 61.8278C232.232 61.341 229.659 58.7331 233.779 57.7421C235.796 57.2553 235.726 59.6198 238.091 58.0377C239.099 57.2777 240.295 56.8066 241.551 56.6749C242.807 56.5432 244.075 56.7559 245.219 57.2901C248.244 59.2895 248.105 55.256 251.895 56.5078C254.573 57.3944 252.869 59.4286 256.555 59.9849C260.24 60.5413 260.153 62.7319 260.449 65.0442L260.605 66.0004C261.092 68.7126 265.056 68.0519 264.5 72.068Z" fill="#683F1D"/>
<path d="M267.038 70.1733C266.447 74.4676 261.04 77.3189 261.04 77.3189L248.592 96.252C248.592 96.252 237.308 109.448 225.26 108.109C225.49 107.115 225.424 106.075 225.069 105.119C223.834 103.258 220.931 103.015 220.201 99.5553C219.471 96.0955 224.895 96.3563 222.6 92.601C220.305 88.8457 218.966 85.8727 222.756 83.1779C226.547 80.4831 222.896 79.4573 225.33 75.163C227.207 71.825 230.337 75.8585 231.502 71.4946C232.666 67.1308 236.126 68.6781 238.612 68.2783C241.777 67.7393 239.082 64.9576 243.428 63.897C245.514 63.3581 245.462 65.8964 247.931 64.21C250.4 62.5236 253.547 62.1411 255.407 63.4102C258.571 65.5487 258.432 61.237 262.361 62.5757C262.487 62.6027 262.61 62.6435 262.726 62.6974C262.726 63.0451 262.726 63.3755 262.883 63.7232C263.491 66.5397 267.647 65.8443 267.038 70.1733Z" fill="#683F1D"/>
<path d="M275.001 129.148C271.802 138.171 252.504 148.411 229.068 118.942C226.963 119.581 224.696 119.424 222.699 118.501C220.702 117.577 219.114 115.953 218.237 113.935C214.759 107.276 219.732 97.5228 231.276 102.217C233.38 103.069 234.545 97.7488 232.006 94.0283C229.468 90.3077 225.052 81.2671 235.344 74.6779C245.637 68.0887 259.302 68.7667 264.552 76.9902C267.848 82.4484 270.469 88.2863 272.359 94.376C273.245 97.1056 274.097 99.9221 274.671 102.773C276.844 112.405 277.435 122.193 275.001 129.148Z" fill="#FEBD9D"/>
<path d="M253.146 105.082C252.607 107.272 248.313 108.107 243.532 106.925C238.751 105.742 235.343 103.03 235.882 100.84C236.421 98.6489 240.733 97.8144 245.497 98.9792C250.26 100.144 253.685 102.891 253.146 105.082Z" fill="#F4A789"/>
<path d="M274.671 102.807C272.376 104.077 270.29 104.355 269.229 103.312C267.699 101.782 269.073 97.8178 272.359 94.4102C273.245 97.1397 274.028 99.9562 274.671 102.807Z" fill="#F4A789"/>
<path d="M239.882 89.8891C240.264 91.7842 252.643 88.1505 251.443 84.1866C249.826 78.8665 239.221 86.4815 239.882 89.8891Z" fill="#683F1D"/>
<path d="M257.928 84.0804C258.189 86.5318 268.116 86.5666 268.081 84.9845C268.047 83.4024 257.337 78.5691 257.928 84.0804Z" fill="#683F1D"/>
<path d="M249.287 95.5905C249.287 96.0341 249.419 96.4677 249.665 96.8365C249.912 97.2053 250.262 97.4928 250.672 97.6625C251.082 97.8323 251.533 97.8767 251.968 97.7902C252.403 97.7036 252.802 97.49 253.116 97.1764C253.43 96.8627 253.643 96.4631 253.73 96.028C253.816 95.593 253.772 95.142 253.602 94.7322C253.432 94.3224 253.145 93.9721 252.776 93.7257C252.407 93.4793 251.974 93.3477 251.53 93.3477C251.235 93.3454 250.942 93.4018 250.669 93.5137C250.396 93.6256 250.148 93.7907 249.939 93.9995C249.73 94.2082 249.565 94.4563 249.453 94.7295C249.342 95.0026 249.285 95.2953 249.287 95.5905Z" fill="#683F1D"/>
<path d="M262.204 93.3494C262.218 93.7898 262.361 94.2164 262.615 94.5759C262.87 94.9355 263.225 95.2121 263.636 95.3712C264.046 95.5304 264.495 95.565 264.925 95.4707C265.356 95.3765 265.749 95.1576 266.056 94.8414C266.362 94.5251 266.569 94.1255 266.65 93.6925C266.731 93.2594 266.683 92.8121 266.511 92.4063C266.34 92.0005 266.052 91.6543 265.685 91.4108C265.318 91.1673 264.887 91.0373 264.447 91.0371C264.146 91.037 263.849 91.0972 263.572 91.2142C263.295 91.3313 263.045 91.5027 262.836 91.7184C262.627 91.9341 262.463 92.1896 262.354 92.4698C262.246 92.75 262.195 93.0491 262.204 93.3494Z" fill="#683F1D"/>
<path d="M229.068 118.941C231.059 118.4 232.93 117.486 234.579 116.246" stroke="#F4A789" stroke-width="1.23439" stroke-linecap="round" stroke-linejoin="round"/>
<path d="M257.303 89.5234C257.303 97.8165 261.093 98.7205 264.918 100.233C268.099 101.485 267.091 104.997 266.343 106.127" stroke="#F4A789" stroke-width="1.23439" stroke-linecap="round" stroke-linejoin="round"/>
<path d="M253.146 111.535C259.631 111.535 264.551 111.17 264.551 111.17C264.551 111.17 261.665 119.359 257.979 118.941C254.293 118.524 253.146 111.535 253.146 111.535Z" fill="white" stroke="#F4A789" stroke-width="1.23439" stroke-linecap="round" stroke-linejoin="round"/>
<path d="M178.752 356.846C199.737 367.277 206.569 370.893 208.064 372.163C212.359 375.97 211.872 383.029 211.872 383.029C211.872 383.029 221.086 387.74 222.025 390.4C222.964 393.06 218.166 398.12 215.071 397.859C215.071 397.859 211.368 401.979 208.03 401.718C208.03 401.718 206.813 407.178 202.275 407.438C202.275 407.438 201.753 412.098 195.321 410.759C188.888 409.42 161.053 386.941 161.053 386.941L178.752 356.846Z" fill="#FEBD9D"/>
<path d="M181.099 358.01C179.221 361.991 168.772 381.342 164.304 389.565C163.07 391.86 162.287 393.286 162.287 393.286C162.287 393.286 133.131 381.655 107.157 370.823C91.7011 364.338 77.3752 358.149 70.9946 354.863C66.9119 352.826 62.9786 350.502 59.2244 347.909C50.7576 341.963 44.829 335.182 42.6905 327.046C40.5521 318.909 42.2211 309.191 49.1754 297.733C50.9992 294.802 53.3827 292.258 56.1898 290.247C58.9969 288.236 62.1726 286.798 65.5355 286.015C69.1484 285.116 72.8741 284.752 76.5928 284.938H77.8446C79.1659 284.938 80.5046 285.181 81.8433 285.39C82.2432 285.39 82.6431 285.511 83.0429 285.598L84.3643 285.842L86.5897 286.363H86.6766L87.8588 286.676L88.3978 286.833C88.8672 286.954 89.3192 287.093 89.7713 287.25L91.1447 287.684L92.5182 288.171L93.9265 288.71C96.2325 289.605 98.4849 290.632 100.672 291.788C101.072 291.979 101.472 292.17 101.854 292.396L103.593 293.352L105.036 294.204H105.14C107.035 295.352 108.93 296.603 110.843 297.977L112.286 299.037C114.685 300.776 117.102 302.828 119.484 305.001C147.527 330.645 180.56 357.158 181.412 357.158C181.429 357.262 181.342 357.523 181.099 358.01Z" fill="#8EC4FF"/>
<path d="M167.139 357.768C162.862 366.182 154.882 381.238 154.882 381.238" stroke="#6CAAF4" stroke-width="1.23439" stroke-linecap="round" stroke-linejoin="round"/>
<path d="M212.341 383.29L203.77 379.204" stroke="#F4A789" stroke-width="1.23439" stroke-linecap="round" stroke-linejoin="round"/>
<path d="M215.107 397.858C212.275 396.702 209.507 395.396 206.813 393.946" stroke="#F4A789" stroke-width="1.23439" stroke-linecap="round" stroke-linejoin="round"/>
<path d="M208.065 401.717C206.334 401.007 204.69 400.103 203.162 399.022" stroke="#F4A789" stroke-width="1.23439" stroke-linecap="round" stroke-linejoin="round"/>
<path d="M420.754 148.058C395.707 117.612 362.674 94.7283 325.357 81.9707C309.728 76.6431 293.526 73.1774 277.086 71.6455" stroke="#D7DCED" stroke-width="3.76617" stroke-linecap="round" stroke-linejoin="round" stroke-dasharray="14.52 14.52"/>
<path d="M207.313 70.0088C204.827 70.0682 202.291 70.2434 199.794 70.4258" stroke="#D7DCED" stroke-width="3.76617" stroke-linecap="round" stroke-linejoin="round"/>
<path d="M184.986 72.0143C130.347 79.5806 77.174 106.75 35.4912 150.051" stroke="#D7DCED" stroke-width="3.76617" stroke-linecap="round" stroke-linejoin="round" stroke-dasharray="14.94 14.94"/>
<path d="M30.3348 155.482C28.6519 157.331 26.9885 159.206 25.3447 161.105" stroke="#D7DCED" stroke-width="3.76617" stroke-linecap="round" stroke-linejoin="round"/>
<path d="M106.501 127.334L51.0604 85.0795C50.067 84.3295 48.8304 83.9747 47.5905 84.0839C46.3505 84.1931 45.1956 84.7585 44.3499 85.6704L19.3474 114.376C18.9512 114.823 18.653 115.347 18.4719 115.915C18.2909 116.484 18.2309 117.084 18.296 117.677C18.3611 118.27 18.5497 118.844 18.8498 119.36C19.1498 119.876 19.5547 120.324 20.0382 120.674L75.4846 162.918C76.478 163.668 77.7146 164.023 78.9546 163.913C80.1945 163.804 81.3494 163.239 82.1952 162.327L107.155 133.698C107.564 133.253 107.874 132.726 108.065 132.152C108.255 131.579 108.322 130.971 108.26 130.37C108.198 129.769 108.009 129.187 107.706 128.664C107.403 128.14 106.992 127.687 106.501 127.334Z" fill="#F9F9F9" stroke="#D7DCED" stroke-width="2.51078" stroke-linecap="round" stroke-linejoin="round"/>
<path d="M96.6439 132.754C96.0471 132.295 54.0875 125.678 54.0875 125.678L48.1194 95.9916" stroke="#D7DCED" stroke-width="2.51078" stroke-linecap="round" stroke-linejoin="round"/>
<path d="M75.0331 152.128L62.6259 127.038" stroke="#D7DCED" stroke-width="2.51078" stroke-linecap="round" stroke-linejoin="round"/>
<path d="M45.689 118.389L28.0017 115.424" stroke="#D7DCED" stroke-width="2.51078" stroke-linecap="round" stroke-linejoin="round"/>
<path d="M159.84 90.7854L145.76 79.1547C145.57 78.9988 145.425 78.7951 145.34 78.5647L140.222 64.478C140.132 64.2401 139.978 64.0316 139.777 63.8754C139.577 63.7192 139.337 63.6215 139.084 63.593C138.831 63.5645 138.575 63.6063 138.345 63.7139C138.114 63.8214 137.918 63.9904 137.778 64.2024L121.718 89.2674C121.58 89.4773 121.505 89.7221 121.5 89.9732C121.496 90.2243 121.563 90.4715 121.693 90.6863C121.807 90.8749 121.969 91.0302 122.161 91.1368C122.354 91.2433 122.572 91.2973 122.792 91.2932L158.921 93.1998C159.209 93.2169 159.495 93.1418 159.737 92.9854C159.979 92.829 160.165 92.5994 160.268 92.3301C160.37 92.0608 160.384 91.7658 160.307 91.488C160.23 91.2102 160.067 90.964 159.84 90.7854Z" fill="white" stroke="#D7DCED" stroke-width="2.51078" stroke-linecap="round" stroke-linejoin="round"/>
<path d="M159.84 90.7861L145.76 79.1554C145.57 78.9995 145.425 78.7958 145.34 78.5654L121.693 90.687C121.807 90.8756 121.968 91.0309 122.161 91.1375C122.354 91.244 122.572 91.298 122.792 91.2939L158.921 93.2005C159.209 93.2176 159.494 93.1425 159.737 92.9861C159.979 92.8297 160.165 92.6001 160.267 92.3308C160.37 92.0615 160.384 91.7665 160.307 91.4887C160.23 91.2109 160.067 90.9647 159.84 90.7861Z" fill="#D7DCED" stroke="#D7DCED" stroke-width="2.51078" stroke-linecap="round" stroke-linejoin="round"/>
</svg>
