<svg width="64" height="64" viewBox="0 0 64 64" fill="none" xmlns="http://www.w3.org/2000/svg">
<path d="M15 17H48.5L54 44H10.5L15 17Z" fill="#D9D9D9"/>
<path d="M15 17H48.5L54 44H10.5L15 17Z" fill="url(#paint0_linear_711_4934)"/>
<path d="M13.3333 29.332L17.3333 17.332H46.6667L50.6667 29.332M46.6667 42.6654C45.6058 42.6654 44.5884 42.2439 43.8382 41.4938C43.0881 40.7436 42.6667 39.7262 42.6667 38.6654C42.6667 37.6045 43.0881 36.5871 43.8382 35.8369C44.5884 35.0868 45.6058 34.6654 46.6667 34.6654C47.7275 34.6654 48.7449 35.0868 49.4951 35.8369C50.2452 36.5871 50.6667 37.6045 50.6667 38.6654C50.6667 39.7262 50.2452 40.7436 49.4951 41.4938C48.7449 42.2439 47.7275 42.6654 46.6667 42.6654ZM17.3333 42.6654C16.2725 42.6654 15.2551 42.2439 14.5049 41.4938C13.7548 40.7436 13.3333 39.7262 13.3333 38.6654C13.3333 37.6045 13.7548 36.5871 14.5049 35.8369C15.2551 35.0868 16.2725 34.6654 17.3333 34.6654C18.3942 34.6654 19.4116 35.0868 20.1618 35.8369C20.9119 36.5871 21.3333 37.6045 21.3333 38.6654C21.3333 39.7262 20.9119 40.7436 20.1618 41.4938C19.4116 42.2439 18.3942 42.6654 17.3333 42.6654ZM50.4533 15.9987C49.92 14.452 48.4267 13.332 46.6667 13.332H17.3333C15.5733 13.332 14.08 14.452 13.5467 15.9987L8 31.9987V53.332C8 54.0393 8.28095 54.7176 8.78105 55.2177C9.28115 55.7178 9.95942 55.9987 10.6667 55.9987H13.3333C14.0406 55.9987 14.7189 55.7178 15.219 55.2177C15.719 54.7176 16 54.0393 16 53.332V50.6654H48V53.332C48 54.0393 48.281 54.7176 48.781 55.2177C49.2811 55.7178 49.9594 55.9987 50.6667 55.9987H53.3333C54.0406 55.9987 54.7189 55.7178 55.219 55.2177C55.7191 54.7176 56 54.0393 56 53.332V31.9987L50.4533 15.9987Z" fill="#0092F3"/>
<path d="M13.3333 29.332L17.3333 17.332H46.6667L50.6667 29.332M46.6667 42.6654C45.6058 42.6654 44.5884 42.2439 43.8382 41.4938C43.0881 40.7436 42.6667 39.7262 42.6667 38.6654C42.6667 37.6045 43.0881 36.5871 43.8382 35.8369C44.5884 35.0868 45.6058 34.6654 46.6667 34.6654C47.7275 34.6654 48.7449 35.0868 49.4951 35.8369C50.2452 36.5871 50.6667 37.6045 50.6667 38.6654C50.6667 39.7262 50.2452 40.7436 49.4951 41.4938C48.7449 42.2439 47.7275 42.6654 46.6667 42.6654ZM17.3333 42.6654C16.2725 42.6654 15.2551 42.2439 14.5049 41.4938C13.7548 40.7436 13.3333 39.7262 13.3333 38.6654C13.3333 37.6045 13.7548 36.5871 14.5049 35.8369C15.2551 35.0868 16.2725 34.6654 17.3333 34.6654C18.3942 34.6654 19.4116 35.0868 20.1618 35.8369C20.9119 36.5871 21.3333 37.6045 21.3333 38.6654C21.3333 39.7262 20.9119 40.7436 20.1618 41.4938C19.4116 42.2439 18.3942 42.6654 17.3333 42.6654ZM50.4533 15.9987C49.92 14.452 48.4267 13.332 46.6667 13.332H17.3333C15.5733 13.332 14.08 14.452 13.5467 15.9987L8 31.9987V53.332C8 54.0393 8.28095 54.7176 8.78105 55.2177C9.28115 55.7178 9.95942 55.9987 10.6667 55.9987H13.3333C14.0406 55.9987 14.7189 55.7178 15.219 55.2177C15.719 54.7176 16 54.0393 16 53.332V50.6654H48V53.332C48 54.0393 48.281 54.7176 48.781 55.2177C49.2811 55.7178 49.9594 55.9987 50.6667 55.9987H53.3333C54.0406 55.9987 54.7189 55.7178 55.219 55.2177C55.7191 54.7176 56 54.0393 56 53.332V31.9987L50.4533 15.9987Z" fill="url(#paint1_linear_711_4934)"/>
<defs>
<linearGradient id="paint0_linear_711_4934" x1="23.55" y1="14" x2="29.9544" y2="51.1458" gradientUnits="userSpaceOnUse">
<stop stop-color="#FDFDFD"/>
<stop offset="1" stop-color="#B3E0FF"/>
</linearGradient>
<linearGradient id="paint1_linear_711_4934" x1="8" y1="14.6654" x2="46.1516" y2="69.6136" gradientUnits="userSpaceOnUse">
<stop stop-color="#29C3FF"/>
<stop offset="1" stop-color="#2764E7"/>
</linearGradient>
</defs>
</svg>
