<svg width="80" height="80" viewBox="0 0 80 80" fill="none" xmlns="http://www.w3.org/2000/svg">
<path d="M25.266 50.0257L25.7956 49.4946L25.7956 49.4946L25.266 50.0257ZM25.266 31.7692L24.7365 31.2381L24.7365 31.2381L25.266 31.7692ZM48.1552 54.5898L47.6257 54.0587L47.6257 54.0587L48.1552 54.5898ZM29.8439 54.5898L29.3143 55.1209L29.3143 55.1209L29.8439 54.5898ZM67.6447 35.1587L68.1743 35.6899L68.1743 35.6899L67.6447 35.1587ZM44.7555 12.3382L45.2851 12.8693L45.2851 12.8693L44.7555 12.3382ZM34.9512 45.9927C35.2446 45.7002 35.2453 45.2254 34.9528 44.932C34.6604 44.6387 34.1855 44.638 33.8922 44.9304L34.9512 45.9927ZM18.5778 38.4375L19.1081 37.9071L19.1073 37.9063L18.5778 38.4375ZM34.0124 23.2683C34.3607 23.4925 34.8248 23.3918 35.049 23.0435C35.2731 22.6952 35.1725 22.2311 34.8242 22.007L34.0124 23.2683ZM32.3209 21.2877L32.7268 20.6571L32.7268 20.6571L32.3209 21.2877ZM23.7555 16.8927L23.8651 16.1507L23.8651 16.1507L23.7555 16.8927ZM7.41716 26.7441L7.94669 27.2752L7.94669 27.2752L7.41716 26.7441ZM17.798 17.654L18.0855 18.3467L18.0855 18.3467L17.798 17.654ZM9.54382 31.4201L9.26753 32.1174L9.26753 32.1174L9.54382 31.4201ZM9.95455 31.5845L10.2403 30.891L10.2403 30.891L9.95455 31.5845ZM15.3753 35.2446L15.9048 34.7135L15.9048 34.7135L15.3753 35.2446ZM15.0613 34.9337L14.539 35.4719L15.0613 34.9337ZM8.28167 30.92L8.55795 30.2227L8.55795 30.2227L8.28167 30.92ZM41.6667 61.6667L41.1364 62.197C41.1479 62.2086 41.1599 62.2198 41.1722 62.2306L41.6667 61.6667ZM57.9439 45.0573C57.7188 44.7097 57.2544 44.6103 56.9067 44.8354C56.559 45.0606 56.4597 45.5249 56.6848 45.8726L57.9439 45.0573ZM58.6683 47.5561L58.0387 47.9637L58.0387 47.9637L58.6683 47.5561ZM63.0766 56.0958L63.8184 55.9855L63.8184 55.9855L63.0766 56.0958ZM53.1955 72.3851L53.725 72.9162L53.725 72.9162L53.1955 72.3851ZM62.3129 62.0354L63.0051 62.3243L62.3129 62.0354ZM49.1635 71.9155L49.8601 71.6378L49.8601 71.6378L49.1635 71.9155ZM47.5828 68.2759L48.2404 67.9152L47.5828 68.2759ZM43.4096 63.1948L43.9391 62.6637L43.9221 62.6467L43.9041 62.6309L43.4096 63.1948ZM46.136 66.083L46.7263 65.6204L46.136 66.083ZM52.9154 72.6644L52.3858 72.1333L52.3858 72.1333L52.9154 72.6644ZM19.1652 39.0249L19.8611 39.3047L19.1652 39.0249ZM67.1152 34.6276L47.6257 54.0587L48.6848 55.1209L68.1743 35.6899L67.1152 34.6276ZM30.3734 54.0587L25.7956 49.4946L24.7365 50.5568L29.3143 55.1209L30.3734 54.0587ZM25.7956 32.3004L45.2851 12.8693L44.226 11.8071L24.7365 31.2381L25.7956 32.3004ZM58.4891 7.41666H60.3853V5.91666H58.4891V7.41666ZM72.5834 19.5759V21.4664H74.0834V19.5759H72.5834ZM60.3853 7.41666C63.4583 7.41666 65.6879 7.41824 67.3894 7.64632C69.0696 7.87154 70.1222 8.30522 70.9076 9.0883L71.9667 8.02605C70.8559 6.91861 69.4344 6.40703 67.5887 6.15962C65.7643 5.91507 63.416 5.91666 60.3853 5.91666V7.41666ZM74.0834 19.5759C74.0834 16.5544 74.085 14.2126 73.8396 12.3932C73.5913 10.5519 73.0778 9.13379 71.9667 8.02605L70.9076 9.0883C71.6927 9.87107 72.1273 10.9196 72.3531 12.5937C72.5817 14.2896 72.5834 16.5119 72.5834 19.5759H74.0834ZM25.7956 49.4946C23.6225 47.328 22.0473 45.7553 21.0061 44.3947C19.9781 43.0513 19.542 42.0036 19.542 40.8975H18.042C18.042 42.4649 18.6849 43.8298 19.8149 45.3063C20.9317 46.7657 22.5935 48.4202 24.7365 50.5568L25.7956 49.4946ZM29.3143 55.1209C31.4574 57.2575 33.1169 58.9143 34.5805 60.0277C36.0616 61.1543 37.4295 61.7944 38.9996 61.7944L38.9996 60.2944C37.888 60.2944 36.8361 59.8588 35.4887 58.8338C34.1239 57.7957 32.5464 56.2252 30.3734 54.0587L29.3143 55.1209ZM68.1743 35.6899C70.9376 32.9348 72.4769 31.419 73.2868 29.4697L71.9015 28.8942C71.233 30.5034 69.9655 31.7859 67.1152 34.6276L68.1743 35.6899ZM72.5834 21.4664C72.5834 25.4853 72.57 27.2852 71.9015 28.8942L73.2868 29.4697C74.0967 27.5201 74.0834 25.3626 74.0834 21.4664H72.5834ZM45.2851 12.8693C48.1351 10.0279 49.4217 8.76376 51.0366 8.09686L50.4641 6.71044C48.5097 7.51752 46.9896 9.05178 44.226 11.8071L45.2851 12.8693ZM58.4891 5.91666C54.5807 5.91666 52.4182 5.90345 50.4641 6.71044L51.0366 8.09686C52.6517 7.42986 54.4586 7.41666 58.4891 7.41666V5.91666ZM28.0845 52.8389L34.9512 45.9927L33.8922 44.9304L27.0254 51.7766L28.0845 52.8389ZM34.8242 22.007L32.7268 20.6571L31.915 21.9184L34.0124 23.2683L34.8242 22.007ZM32.7268 20.6571C30.6328 19.3093 29.0268 18.2751 27.6616 17.5394C26.2869 16.7987 25.1111 16.3348 23.8651 16.1507L23.6459 17.6346C24.6543 17.7836 25.6574 18.1634 26.95 18.8599C28.2521 19.5615 29.8016 20.5582 31.915 21.9184L32.7268 20.6571ZM7.94669 27.2752C9.8167 25.4109 11.8586 23.3753 13.702 21.6937C14.6234 20.8531 15.4863 20.1093 16.2462 19.5236C17.0176 18.929 17.6395 18.5318 18.0855 18.3467L17.5106 16.9613C16.8747 17.2251 16.1248 17.7233 15.3305 18.3355C14.5245 18.9567 13.6276 19.7312 12.691 20.5856C10.8184 22.2939 8.75177 24.3545 6.88764 26.213L7.94669 27.2752ZM23.8651 16.1507C21.7388 15.8365 19.5405 16.119 17.5106 16.9613L18.0855 18.3467C19.8718 17.6056 21.7961 17.3612 23.6459 17.6346L23.8651 16.1507ZM8.00538 31.6172L9.26753 32.1174L9.8201 30.7228L8.55795 30.2227L8.00538 31.6172ZM14.8458 35.7757L18.0482 38.9686L19.1073 37.9063L15.9048 34.7135L14.8458 35.7757ZM9.26753 32.1174C9.47545 32.1997 9.57307 32.2384 9.66884 32.2779L10.2403 30.891C10.1329 30.8468 10.0244 30.8038 9.8201 30.7228L9.26753 32.1174ZM15.9048 34.7135C15.7494 34.5585 15.6668 34.4761 15.5836 34.3954L14.539 35.4719C14.6133 35.544 14.6876 35.618 14.8458 35.7757L15.9048 34.7135ZM9.66884 32.2779C11.4811 33.0246 13.134 34.1086 14.539 35.4719L15.5836 34.3954C14.0418 32.8994 12.2283 31.7101 10.2403 30.891L9.66884 32.2779ZM6.88764 26.213C5.2031 27.8924 5.79492 30.7414 8.00539 31.6172L8.55795 30.2227C7.34867 29.7435 7.02909 28.1901 7.94669 27.2752L6.88764 26.213ZM56.6848 45.8726L58.0387 47.9637L59.2979 47.1484L57.9439 45.0573L56.6848 45.8726ZM52.6659 71.854L52.3858 72.1333L53.4449 73.1955L53.725 72.9162L52.6659 71.854ZM58.0387 47.9637C59.4031 50.0708 60.4027 51.6156 61.1063 52.9136C61.8049 54.2022 62.1854 55.2017 62.3347 56.2061L63.8184 55.9855C63.6336 54.7423 63.1681 53.5694 62.425 52.1987C61.6871 50.8374 60.6496 49.2361 59.2979 47.1484L58.0387 47.9637ZM53.725 72.9162C55.5891 71.0577 57.6559 68.9973 59.3694 67.1302C60.2263 66.1965 61.0031 65.3022 61.6262 64.4987C62.2403 63.7067 62.7402 62.9588 63.0051 62.3243L61.6208 61.7465C61.4354 62.1906 61.0373 62.8103 60.4409 63.5795C59.8535 64.337 59.1074 65.1973 58.2642 66.116C56.5776 67.9538 54.5359 69.9896 52.6659 71.854L53.725 72.9162ZM62.3347 56.2061C62.6087 58.049 62.3639 59.9663 61.6208 61.7465L63.0051 62.3243C63.8502 60.2996 64.1338 58.1067 63.8184 55.9855L62.3347 56.2061ZM43.9041 62.6309L42.1611 61.1027L41.1722 62.2306L42.9152 63.7587L43.9041 62.6309ZM49.8601 71.6378C49.1294 69.8047 48.7424 68.8303 48.2404 67.9152L46.9253 68.6366C47.3729 69.4527 47.7231 70.3277 48.4668 72.1933L49.8601 71.6378ZM42.8801 63.7259C44.3039 65.1455 44.9712 65.8126 45.5457 66.5456L46.7263 65.6204C46.0823 64.7986 45.3382 64.0585 43.9391 62.6637L42.8801 63.7259ZM48.2404 67.9152C47.7991 67.1105 47.2927 66.343 46.7263 65.6204L45.5457 66.5456C46.0617 67.2041 46.5231 67.9034 46.9253 68.6366L48.2404 67.9152ZM56.7814 31.2381C54.5458 33.467 50.9203 33.467 48.6848 31.2381L47.6257 32.3004C50.4467 35.1129 55.0195 35.1129 57.8404 32.3004L56.7814 31.2381ZM48.6848 31.2381C46.4505 29.0105 46.4505 25.3998 48.6848 23.1722L47.6257 22.1099C44.8035 24.9237 44.8035 29.4866 47.6257 32.3004L48.6848 31.2381ZM48.6848 23.1722C50.9203 20.9433 54.5458 20.9433 56.7814 23.1722L57.8404 22.1099C55.0195 19.2974 50.4467 19.2974 47.6257 22.1099L48.6848 23.1722ZM56.7814 23.1722C59.0157 25.3998 59.0157 29.0105 56.7814 31.2381L57.8404 32.3004C60.6627 29.4866 60.6627 24.9237 57.8404 22.1099L56.7814 23.1722ZM52.3858 72.1333C51.6003 72.9165 50.2564 72.6319 49.8601 71.6378L48.4668 72.1933C49.2708 74.2102 51.9144 74.7215 53.4449 73.1955L52.3858 72.1333ZM47.6257 54.0587C45.9375 55.7418 44.6052 57.0695 43.4452 58.0713C42.284 59.0741 41.3493 59.7017 40.4701 60.0255L40.9886 61.4331C42.1202 61.0162 43.2172 60.2502 44.4257 59.2065C45.6354 58.1618 47.0105 56.7901 48.6848 55.1209L47.6257 54.0587ZM40.4701 60.0255C39.9785 60.2066 39.4991 60.2944 38.9996 60.2944L38.9996 61.7944C39.685 61.7944 40.3396 61.6721 40.9886 61.4331L40.4701 60.0255ZM42.197 61.1363L41.2597 60.199L40.199 61.2596L41.1364 62.197L42.197 61.1363ZM24.7365 31.2381C23.1031 32.8666 21.7541 34.211 20.717 35.3947C19.6811 36.5768 18.9103 37.6487 18.4694 38.7451L19.8611 39.3047C20.2077 38.4428 20.8474 37.5219 21.8451 36.3832C22.8415 35.2461 24.1492 33.9418 25.7956 32.3004L24.7365 31.2381ZM18.4694 38.7451C18.1873 39.4465 18.042 40.1531 18.042 40.8975H19.542C19.542 40.3579 19.6455 39.8408 19.8611 39.3047L18.4694 38.7451ZM18.0474 38.9678L18.6349 39.5552L19.6956 38.4946L19.1081 37.9071L18.0474 38.9678Z" fill="white" fill-opacity="0.8"/>
</svg>
