<svg width="96" height="68" viewBox="0 0 96 68" fill="none" xmlns="http://www.w3.org/2000/svg">
<g opacity="0.2">
<path d="M24.4948 68C19.8763 68 15.6701 66.8502 11.8763 64.5507C8.24741 62.087 5.36081 58.8019 3.21648 54.6956C1.07215 50.4251 -7.62939e-06 45.5797 -7.62939e-06 40.1594C-7.62939e-06 35.8889 0.907211 31.7005 2.72164 27.5942C4.53607 23.4879 7.0103 19.628 10.1443 16.0145C13.4433 12.401 17.2371 9.19808 21.5258 6.4058C25.8144 3.61353 30.433 1.47826 35.3814 0L44.7835 11.3333C38.3505 14.2899 33.0722 17.657 28.9484 21.4348C24.8247 25.2126 22.7629 28.4976 22.7629 31.2899C22.7629 33.4251 23.6701 35.314 25.4845 36.9565C27.299 38.599 28.9484 40.0773 30.433 41.3913C34.0618 44.3478 36.4536 46.8116 37.6082 48.7826C38.9278 50.7536 39.5876 52.8068 39.5876 54.942C39.5876 58.8841 38.1856 62.087 35.3814 64.5507C32.5773 66.8502 28.9484 68 24.4948 68ZM75.7113 68C71.0928 68 66.8866 66.8502 63.0928 64.5507C59.4639 62.087 56.5773 58.8019 54.433 54.6956C52.2887 50.4251 51.2165 45.5797 51.2165 40.1594C51.2165 35.8889 52.1237 31.7005 53.9381 27.5942C55.7526 23.4879 58.2268 19.628 61.3608 16.0145C64.6598 12.401 68.4536 9.19808 72.7423 6.4058C77.0309 3.61353 81.6495 1.47826 86.5979 0L96 11.3333C89.567 14.2899 84.2887 17.657 80.1649 21.4348C76.0412 25.2126 73.9794 28.4976 73.9794 31.2899C73.9794 33.4251 74.8866 35.314 76.701 36.9565C78.5155 38.599 80.1649 40.0773 81.6495 41.3913C85.2783 44.3478 87.6701 46.8116 88.8247 48.7826C90.1443 50.7536 90.8041 52.8068 90.8041 54.942C90.8041 58.8841 89.4021 62.087 86.5979 64.5507C83.7938 66.8502 80.1649 68 75.7113 68Z" fill="#0092F3"/>
<path d="M24.4948 68C19.8763 68 15.6701 66.8502 11.8763 64.5507C8.24741 62.087 5.36081 58.8019 3.21648 54.6956C1.07215 50.4251 -7.62939e-06 45.5797 -7.62939e-06 40.1594C-7.62939e-06 35.8889 0.907211 31.7005 2.72164 27.5942C4.53607 23.4879 7.0103 19.628 10.1443 16.0145C13.4433 12.401 17.2371 9.19808 21.5258 6.4058C25.8144 3.61353 30.433 1.47826 35.3814 0L44.7835 11.3333C38.3505 14.2899 33.0722 17.657 28.9484 21.4348C24.8247 25.2126 22.7629 28.4976 22.7629 31.2899C22.7629 33.4251 23.6701 35.314 25.4845 36.9565C27.299 38.599 28.9484 40.0773 30.433 41.3913C34.0618 44.3478 36.4536 46.8116 37.6082 48.7826C38.9278 50.7536 39.5876 52.8068 39.5876 54.942C39.5876 58.8841 38.1856 62.087 35.3814 64.5507C32.5773 66.8502 28.9484 68 24.4948 68ZM75.7113 68C71.0928 68 66.8866 66.8502 63.0928 64.5507C59.4639 62.087 56.5773 58.8019 54.433 54.6956C52.2887 50.4251 51.2165 45.5797 51.2165 40.1594C51.2165 35.8889 52.1237 31.7005 53.9381 27.5942C55.7526 23.4879 58.2268 19.628 61.3608 16.0145C64.6598 12.401 68.4536 9.19808 72.7423 6.4058C77.0309 3.61353 81.6495 1.47826 86.5979 0L96 11.3333C89.567 14.2899 84.2887 17.657 80.1649 21.4348C76.0412 25.2126 73.9794 28.4976 73.9794 31.2899C73.9794 33.4251 74.8866 35.314 76.701 36.9565C78.5155 38.599 80.1649 40.0773 81.6495 41.3913C85.2783 44.3478 87.6701 46.8116 88.8247 48.7826C90.1443 50.7536 90.8041 52.8068 90.8041 54.942C90.8041 58.8841 89.4021 62.087 86.5979 64.5507C83.7938 66.8502 80.1649 68 75.7113 68Z" fill="url(#paint0_linear_1083_1405)"/>
</g>
<defs>
<linearGradient id="paint0_linear_1083_1405" x1="96" y1="2.125" x2="41.0194" y2="101.496" gradientUnits="userSpaceOnUse">
<stop stop-color="#29C3FF"/>
<stop offset="1" stop-color="#2764E7"/>
</linearGradient>
</defs>
</svg>
