<svg xmlns="http://www.w3.org/2000/svg" width="42" height="30" viewBox="0 0 42 30" fill="none">
<path d="M10.7165 30C8.69587 30 6.85567 29.4928 5.19587 28.4783C3.60825 27.3913 2.34536 25.942 1.40721 24.1304C0.469067 22.2464 0 20.1087 0 17.7174C0 15.8333 0.396904 13.9855 1.19072 12.1739C1.98454 10.3623 3.06701 8.65942 4.43814 7.06522C5.88144 5.47102 7.54123 4.05797 9.41752 2.82609C11.2938 1.5942 13.3144 0.652174 15.4794 0L19.5928 5C16.7783 6.30435 14.4691 7.78986 12.6649 9.45652C10.8608 11.1232 9.95876 12.5725 9.95876 13.8043C9.95876 14.7464 10.3557 15.5797 11.1495 16.3043C11.9433 17.029 12.6649 17.6812 13.3144 18.2609C14.9021 19.5652 15.9485 20.6522 16.4536 21.5217C17.0309 22.3913 17.3196 23.2971 17.3196 24.2391C17.3196 25.9783 16.7062 27.3913 15.4794 28.4783C14.2526 29.4928 12.6649 30 10.7165 30ZM33.1237 30C31.1031 30 29.2629 29.4928 27.6031 28.4783C26.0155 27.3913 24.7526 25.942 23.8144 24.1304C22.8763 22.2464 22.4072 20.1087 22.4072 17.7174C22.4072 15.8333 22.8041 13.9855 23.5979 12.1739C24.3918 10.3623 25.4742 8.65942 26.8454 7.06522C28.2887 5.47102 29.9485 4.05797 31.8247 2.82609C33.701 1.5942 35.7216 0.652174 37.8866 0L42 5C39.1856 6.30435 36.8763 7.78986 35.0722 9.45652C33.268 11.1232 32.366 12.5725 32.366 13.8043C32.366 14.7464 32.7629 15.5797 33.5567 16.3043C34.3505 17.029 35.0722 17.6812 35.7216 18.2609C37.3093 19.5652 38.3557 20.6522 38.8608 21.5217C39.4381 22.3913 39.7268 23.2971 39.7268 24.2391C39.7268 25.9783 39.1134 27.3913 37.8866 28.4783C36.6598 29.4928 35.0722 30 33.1237 30Z" fill="white" fill-opacity="0.4"/>
</svg>