<svg width="64" height="64" viewBox="0 0 64 64" fill="none" xmlns="http://www.w3.org/2000/svg">
<path d="M8 27.7764C8 19.2496 8 14.9861 9.00671 13.5518C10.0134 12.1175 14.0222 10.7452 22.0398 8.00081L23.5673 7.47794C27.7466 6.04734 29.8363 5.33203 32 5.33203C34.1637 5.33203 36.2534 6.04734 40.4327 7.47794L41.9602 8.00081C49.9778 10.7453 53.9866 12.1175 54.9933 13.5518C56 14.9861 56 19.2496 56 27.7764C56 29.0644 56 30.4611 56 31.9757C56 47.0105 44.6961 54.3067 37.6038 57.4048C35.68 58.2452 34.718 58.6654 32 58.6654C29.282 58.6654 28.32 58.2452 26.3962 57.4048C19.3039 54.3067 8 47.0105 8 31.9757C8 30.4611 8 29.0644 8 27.7764Z" stroke="#0D6EFD" stroke-width="1.5"/>
<path d="M28.9621 22.3036C30.3132 19.8798 30.9887 18.668 31.9987 18.668C33.0087 18.668 33.6842 19.8798 35.0353 22.3036L35.3849 22.9306C35.7688 23.6194 35.9608 23.9637 36.2601 24.191C36.5594 24.4182 36.9322 24.5025 37.6778 24.6712L38.3565 24.8248C40.9802 25.4184 42.292 25.7152 42.6041 26.7189C42.9162 27.7225 42.0219 28.7683 40.2333 30.8599L39.7705 31.401C39.2622 31.9954 39.0081 32.2925 38.8938 32.6602C38.7794 33.0279 38.8179 33.4244 38.8947 34.2174L38.9647 34.9393C39.2351 37.7299 39.3703 39.1253 38.5532 39.7455C37.7361 40.3658 36.5078 39.8003 34.0513 38.6692L33.4158 38.3766C32.7177 38.0552 32.3687 37.8945 31.9987 37.8945C31.6287 37.8945 31.2797 38.0552 30.5816 38.3766L29.9461 38.6692C27.4896 39.8003 26.2613 40.3658 25.4442 39.7455C24.6271 39.1253 24.7623 37.7299 25.0327 34.9393L25.1027 34.2174C25.1795 33.4244 25.2179 33.0279 25.1036 32.6602C24.9893 32.2925 24.7352 31.9954 24.2269 31.401L23.7641 30.8599C21.9755 28.7683 21.0812 27.7225 21.3933 26.7189C21.7054 25.7152 23.0172 25.4184 25.6409 24.8248L26.3196 24.6712C27.0652 24.5025 27.438 24.4182 27.7373 24.191C28.0366 23.9637 28.2286 23.6194 28.6125 22.9306L28.9621 22.3036Z" stroke="#0D6EFD" stroke-width="1.5"/>
</svg>
