<svg width="40" height="40" viewBox="0 0 40 40" fill="none" xmlns="http://www.w3.org/2000/svg">
<path d="M13.3333 30C8.6193 30 6.26228 30 4.79781 28.5355C3.33334 27.0711 3.33334 24.714 3.33334 20C3.33334 15.286 3.33334 12.9289 4.79781 11.4645C6.26228 10 8.6193 10 13.3333 10C18.0474 10 20.4044 10 21.8689 11.4645C23.3333 12.9289 23.3333 15.286 23.3333 20" stroke="#0092F3" stroke-width="1.5" stroke-linecap="round" stroke-linejoin="round"/>
<path d="M16.6667 20C16.6667 24.714 16.6667 27.0711 18.1311 28.5355C19.5956 30 21.9526 30 26.6667 30C31.3807 30 33.7377 30 35.2022 28.5355C36.6667 27.0711 36.6667 24.714 36.6667 20C36.6667 15.286 36.6667 12.9289 35.2022 11.4645C33.7377 10 31.3807 10 26.6667 10" stroke="#0092F3" stroke-width="1.5" stroke-linecap="round" stroke-linejoin="round"/>
</svg>
