<svg width="40" height="40" viewBox="0 0 40 40" fill="none" xmlns="http://www.w3.org/2000/svg">
<path d="M15 15H25" stroke="#0092F3" stroke-width="1.5" stroke-linecap="round"/>
<path d="M20 25L20 15" stroke="#0092F3" stroke-width="1.5" stroke-linecap="round"/>
<path d="M10 6.66665C10 8.5076 8.50763 9.99998 6.66668 9.99998C4.82573 9.99998 3.33334 8.5076 3.33334 6.66665C3.33334 4.8257 4.82573 3.33331 6.66668 3.33331C8.50763 3.33331 10 4.8257 10 6.66665Z" stroke="#0092F3" stroke-width="1.5"/>
<path d="M10 33.3333C10 35.1743 8.50763 36.6667 6.66668 36.6667C4.82573 36.6667 3.33334 35.1743 3.33334 33.3333C3.33334 31.4924 4.82573 30 6.66668 30C8.50763 30 10 31.4924 10 33.3333Z" stroke="#0092F3" stroke-width="1.5"/>
<path d="M36.6667 6.66665C36.6667 8.5076 35.1743 9.99998 33.3333 9.99998C31.4924 9.99998 30 8.5076 30 6.66665C30 4.8257 31.4924 3.33331 33.3333 3.33331C35.1743 3.33331 36.6667 4.8257 36.6667 6.66665Z" stroke="#0092F3" stroke-width="1.5"/>
<path d="M36.6667 33.3333C36.6667 35.1743 35.1743 36.6667 33.3333 36.6667C31.4924 36.6667 30 35.1743 30 33.3333C30 31.4924 31.4924 30 33.3333 30C35.1743 30 36.6667 31.4924 36.6667 33.3333Z" stroke="#0092F3" stroke-width="1.5"/>
<path d="M10 33.3333H30" stroke="#0092F3" stroke-width="1.5" stroke-linecap="round"/>
<path d="M30 6.66669H10" stroke="#0092F3" stroke-width="1.5" stroke-linecap="round"/>
<path d="M33.3333 30L33.3333 10" stroke="#0092F3" stroke-width="1.5" stroke-linecap="round"/>
<path d="M6.66666 10L6.66666 30" stroke="#0092F3" stroke-width="1.5" stroke-linecap="round"/>
</svg>
