<svg width="40" height="40" viewBox="0 0 40 40" fill="none" xmlns="http://www.w3.org/2000/svg">
<path d="M34.9586 20.3087L34.2196 20.1809L34.2196 20.1809L34.9586 20.3087ZM33.7827 27.1083L34.5217 27.2361L34.5217 27.2361L33.7827 27.1083ZM11.563 34.1285L10.8157 34.1931L10.8157 34.1931L11.563 34.1285ZM10.2093 18.474L10.9566 18.4094L10.9566 18.4094L10.2093 18.474ZM23.3249 8.70238L24.065 8.82364L24.065 8.82364L23.3249 8.70238ZM22.2205 15.4433L22.9606 15.5646L22.9606 15.5646L22.2205 15.4433ZM11.1636 16.1292L10.674 15.561L10.674 15.561L11.1636 16.1292ZM13.5615 14.0628L14.0511 14.631L14.0511 14.631L13.5615 14.0628ZM17.5301 7.97292L16.8041 7.7846L16.8041 7.7846L17.5301 7.97292ZM18.3229 4.91649L19.0489 5.10481L19.0489 5.10481L18.3229 4.91649ZM21.1127 3.4406L20.8833 4.15466L20.8833 4.15466L21.1127 3.4406ZM21.3543 3.51822L21.5837 2.80416L21.5837 2.80416L21.3543 3.51822ZM16.4366 10.771L17.0981 11.1244L17.0981 11.1244L16.4366 10.771ZM23.1745 5.41255L22.4485 5.60087L22.4485 5.60087L23.1745 5.41255ZM19.457 3.554L19.1314 2.87835L19.1314 2.87835L19.457 3.554ZM34.2196 20.1809L33.0437 26.9805L34.5217 27.2361L35.6976 20.4365L34.2196 20.1809ZM22.0749 35.9167H14.3272V37.4167H22.0749V35.9167ZM12.3102 34.0639L10.9566 18.4094L9.46213 18.5386L10.8157 34.1931L12.3102 34.0639ZM33.0437 26.9805C32.1553 32.1173 27.5321 35.9167 22.0749 35.9167V37.4167C28.2221 37.4167 33.5023 33.1306 34.5217 27.2361L33.0437 26.9805ZM22.5848 8.58111L21.4803 15.322L22.9606 15.5646L24.065 8.82364L22.5848 8.58111ZM11.6532 16.6973L14.0511 14.631L13.0719 13.4947L10.674 15.561L11.6532 16.6973ZM18.2561 8.16124L19.0489 5.10481L17.597 4.72817L16.8041 7.7846L18.2561 8.16124ZM20.8833 4.15466L21.1249 4.23228L21.5837 2.80416L21.342 2.72654L20.8833 4.15466ZM17.0981 11.1244C17.5996 10.1856 17.9888 9.19156 18.2561 8.16124L16.8041 7.7846C16.5669 8.69924 16.2211 9.58257 15.775 10.4177L17.0981 11.1244ZM21.1249 4.23228C21.7924 4.44673 22.2846 4.96919 22.4485 5.60087L23.9004 5.22423C23.6027 4.0763 22.7218 3.16979 21.5837 2.80416L21.1249 4.23228ZM19.0489 5.10481C19.1453 4.73303 19.4086 4.40988 19.7826 4.22965L19.1314 2.87835C18.3729 3.24385 17.8076 3.9161 17.597 4.72817L19.0489 5.10481ZM19.7826 4.22965C20.1231 4.06556 20.5199 4.03794 20.8833 4.15466L21.342 2.72654C20.6141 2.49268 19.8198 2.54664 19.1314 2.87835L19.7826 4.22965ZM23.5895 17.807H32.2246V16.307H23.5895V17.807ZM7.36607 35.7147L5.74674 18.4042L4.25326 18.5439L5.87259 35.8544L7.36607 35.7147ZM24.065 8.82364C24.2614 7.62547 24.2053 6.39945 23.9004 5.22423L22.4485 5.60087C22.7009 6.57391 22.7473 7.58904 22.5848 8.58111L24.065 8.82364ZM14.3272 35.9167C13.2775 35.9167 12.4009 35.1127 12.3102 34.0639L10.8157 34.1931C10.9734 36.016 12.4977 37.4167 14.3272 37.4167V35.9167ZM14.0511 14.631C15.1759 13.6617 16.3369 12.5495 17.0981 11.1244L15.775 10.4177C15.1518 11.5845 14.1721 12.5466 13.0719 13.4947L14.0511 14.631ZM35.6976 20.4365C36.0704 18.2807 34.4126 16.307 32.2246 16.307V17.807C33.4799 17.807 34.4341 18.9401 34.2196 20.1809L35.6976 20.4365ZM21.4803 15.322C21.2672 16.6231 22.27 17.807 23.5895 17.807V16.307C23.1973 16.307 22.8967 15.9545 22.9606 15.5646L21.4803 15.322ZM10.9566 18.4094C10.9004 17.7595 11.1597 17.1225 11.6532 16.6973L10.674 15.561C9.81521 16.301 9.36446 17.409 9.46213 18.5386L10.9566 18.4094Z" fill="#0092F3"/>
</svg>
