<svg width="80" height="80" viewBox="0 0 80 80" fill="none" xmlns="http://www.w3.org/2000/svg">
<path d="M10 34.7222C10 24.0636 10 18.7343 11.2584 16.9414C12.5168 15.1485 17.5277 13.4332 27.5497 10.0026L29.4591 9.34905C34.6833 7.56079 37.2954 6.66666 40 6.66666C42.7046 6.66666 45.3167 7.56079 50.5409 9.34905L52.4503 10.0026C62.4723 13.4332 67.4832 15.1485 68.7416 16.9414C70 18.7343 70 24.0636 70 34.7222C70 36.3321 70 38.078 70 39.9712C70 58.7648 55.8701 67.885 47.0048 71.7576C44.6 72.8081 43.3975 73.3333 40 73.3333C36.6025 73.3333 35.4 72.8081 32.9952 71.7576C24.1299 67.8849 10 58.7648 10 39.9712C10 38.078 10 36.3321 10 34.7222Z" stroke="white" stroke-width="1.5"/>
<path d="M31.6667 41.3333L36.4286 46.6667L48.3333 33.3333" stroke="white" stroke-width="1.5" stroke-linecap="round" stroke-linejoin="round"/>
</svg>
